<?xml version="1.0" standalone="no"?>
<!DOCTYPE svg PUBLIC "-//W3C//DTD SVG 20010904//EN"
 "http://www.w3.org/TR/2001/REC-SVG-20010904/DTD/svg10.dtd">
<svg version="1.0" xmlns="http://www.w3.org/2000/svg"
 width="768.000000pt" height="576.000000pt" viewBox="0 0 768.000000 576.000000"
 preserveAspectRatio="xMidYMid meet">

<g transform="translate(0.000000,576.000000) scale(0.100000,-0.100000)"
fill="#000000" stroke="none">
<path d="M0 4394 c0 -828 4 -1363 9 -1359 5 3 17 -3 27 -12 12 -13 19 -14 22
-5 2 6 10 12 17 12 8 0 17 10 21 22 6 21 7 21 20 3 14 -18 14 -18 15 1 0 18 1
18 9 -1 7 -17 9 -14 11 15 l2 35 6 -35 c7 -35 7 -35 15 17 8 56 34 82 35 35 0
-40 6 -61 20 -75 10 -9 11 -8 5 7 -5 13 -4 17 4 12 8 -5 12 1 12 16 1 21 1 22
11 4 9 -15 13 -16 20 -5 6 10 9 11 9 2 0 -7 4 -13 8 -13 5 0 7 26 6 58 -2 51
-2 53 5 17 5 -22 9 -31 10 -20 1 17 3 18 11 5 5 -8 10 -24 10 -35 0 -16 -2
-17 -10 -5 -8 14 -9 1 -1 -53 0 -5 6 -5 12 -1 8 4 7 9 -2 15 -10 6 -11 11 -3
17 5 4 15 23 21 42 l11 35 1 -37 c1 -20 6 -40 12 -43 6 -5 10 7 8 32 -3 69 3
79 16 23 l13 -55 2 60 c1 43 4 53 9 35 6 -22 8 -23 14 -7 4 10 7 28 7 40 0 25
16 12 23 -18 3 -13 5 -9 6 12 1 31 3 32 27 23 32 -13 37 -12 29 1 -9 14 -12
139 -4 133 12 -7 1 66 -12 82 -9 11 -8 14 7 14 14 0 15 3 6 12 -19 19 -14 29
13 22 14 -4 32 -1 40 6 8 7 22 10 30 6 10 -3 14 -2 9 5 -3 6 -15 9 -25 6 -28
-7 -23 6 8 25 l28 17 -40 2 c-39 1 -39 2 -10 9 17 4 22 8 11 9 -12 1 -16 6
-12 16 7 18 -19 45 -44 45 -10 0 -22 5 -25 10 -3 6 2 10 11 10 16 0 16 1 -2
15 -18 13 -17 14 20 15 30 0 37 3 32 15 -3 8 0 15 7 15 7 0 18 5 25 12 9 9 8
16 -5 30 -15 16 -15 18 0 18 9 0 19 -4 22 -10 3 -5 12 -10 18 -10 7 0 -8 19
-33 41 -25 23 -36 38 -25 34 11 -4 30 -10 43 -12 12 -3 25 -10 28 -15 3 -5 12
-4 20 3 19 16 18 33 -3 25 -16 -6 -16 -6 0 12 19 21 13 32 -16 32 -28 0 -13
13 19 16 36 4 39 9 24 44 -7 17 -10 33 -7 36 3 3 8 -4 12 -16 6 -18 9 -19 23
-8 15 11 15 11 5 -2 -9 -12 -8 -21 4 -40 9 -16 12 -18 8 -6 -6 19 -5 19 15 1
23 -21 26 -14 6 18 -7 12 -16 41 -19 65 -4 35 -2 42 9 38 11 -4 11 0 -2 20 -9
13 -14 27 -11 31 4 3 -1 12 -11 19 -9 7 -14 16 -10 20 10 9 48 -25 48 -43 0
-8 7 -21 15 -29 12 -13 17 -13 28 -2 8 7 12 20 10 28 -2 8 5 -2 17 -22 21 -40
50 -51 50 -20 0 14 2 15 10 2 7 -11 10 -7 10 17 0 17 -7 38 -15 47 -9 8 -11
17 -6 21 6 3 18 -6 27 -20 31 -47 44 -21 19 38 -10 23 6 22 33 -3 34 -32 49
-23 17 10 -22 23 -34 28 -54 23 -18 -4 -23 -2 -16 5 17 17 115 19 115 2 0 -5
-7 -10 -15 -10 -13 0 -13 -3 -3 -20 7 -11 21 -20 30 -20 22 0 22 -4 1 -37 -10
-15 -13 -24 -6 -20 6 4 13 1 16 -5 3 -7 8 11 12 39 4 29 11 50 16 47 5 -2 6
-18 2 -34 -4 -20 -1 -30 7 -30 7 0 10 7 6 15 -11 30 9 14 23 -17 8 -18 19 -44
25 -58 6 -14 19 -34 28 -44 10 -11 16 -22 13 -25 -7 -7 -32 27 -56 76 -12 24
-25 40 -31 37 -5 -3 -4 -11 3 -20 9 -11 9 -18 -1 -29 -11 -13 -10 -14 2 -10
22 9 32 -25 12 -40 -15 -11 -16 -12 -1 -18 9 -3 16 -3 14 1 -3 11 16 10 36 -2
24 -15 21 -31 -8 -44 -20 -9 -23 -9 -18 3 3 8 9 15 15 15 5 0 6 4 3 10 -3 5
-15 8 -25 7 -22 -4 -39 -17 -22 -17 7 0 11 -3 11 -7 -1 -5 -1 -13 0 -19 1 -15
63 -75 70 -68 3 3 -1 9 -9 14 -12 8 -12 10 -1 10 8 0 11 6 7 16 -3 8 -2 12 4
9 5 -3 16 -27 24 -53 8 -26 15 -40 15 -32 1 13 2 13 11 0 8 -12 10 -12 10 -1
0 8 -6 19 -14 25 -15 11 -19 31 -17 74 0 13 5 21 10 18 5 -3 9 0 8 7 -1 48 4
69 17 64 10 -4 18 4 24 21 10 26 10 26 9 -10 0 -21 -4 -35 -9 -32 -25 16 -1
-15 45 -57 55 -52 75 -62 55 -29 -7 11 -18 20 -25 20 -6 0 -19 22 -28 49 -14
43 -14 59 -4 113 6 35 18 74 26 88 8 14 11 16 7 5 -9 -22 -13 -200 -6 -227 6
-24 38 -23 64 2 21 19 22 19 42 1 39 -34 51 -34 19 0 -35 37 -40 49 -21 49 20
0 68 62 69 89 0 24 1 24 9 6 l9 -20 1 20 c0 18 2 18 20 -5 23 -30 27 -14 4 18
-8 12 -12 22 -8 22 3 0 2 6 -3 13 -5 6 -10 40 -11 74 0 35 -6 72 -12 84 -7 11
-9 23 -7 26 3 2 25 -35 50 -83 24 -49 50 -90 57 -92 7 -3 5 7 -6 24 -18 28
-18 29 0 14 18 -14 18 -13 11 9 -5 18 -4 22 6 16 8 -5 2 5 -13 22 -32 33 -38
55 -9 29 11 -10 25 -15 31 -11 6 3 9 1 8 -7 -2 -8 5 -12 16 -11 20 1 48 -26
40 -39 -2 -3 7 -5 21 -3 14 1 28 -2 31 -7 3 -4 10 -5 16 -2 8 5 7 11 -3 18
-13 11 -22 46 -11 46 2 0 11 -8 18 -17 13 -17 13 -17 14 2 0 15 2 17 9 6 7
-11 11 -10 20 6 5 11 7 24 3 29 -4 4 10 -5 32 -20 l38 -29 -17 27 c-16 23 -16
26 -1 20 9 -3 16 -10 16 -15 0 -5 4 -9 10 -9 6 0 6 9 0 25 -5 14 -6 26 -2 26
28 5 39 3 56 -11 17 -14 18 -13 12 8 -5 14 -3 22 4 22 7 0 10 8 7 20 -8 32 10
23 39 -17 20 -30 24 -33 18 -13 -13 46 -10 55 21 58 19 3 34 -2 43 -15 13 -16
14 -14 10 21 -4 34 -3 36 10 20 13 -17 14 -15 8 21 -6 37 -5 39 9 21 15 -20
15 -20 16 0 0 17 1 16 9 -3 10 -25 30 -31 30 -9 0 7 11 21 25 30 24 16 25 15
31 -11 7 -25 8 -25 15 -8 7 18 8 18 8 2 1 -13 7 -16 28 -13 14 3 30 11 35 18
6 10 8 8 8 -4 0 -21 1 -21 34 -8 14 5 26 16 26 25 0 8 5 15 11 15 5 0 8 4 4
10 -8 13 17 50 35 50 12 -1 11 -3 -2 -11 -10 -5 -17 -20 -17 -32 1 -16 3 -17
6 -5 3 11 10 15 20 11 12 -5 14 -2 9 8 -4 8 0 5 10 -6 l17 -20 -8 20 c-9 23
-7 83 3 99 3 6 7 16 8 21 1 6 18 52 38 103 25 63 34 101 30 120 -4 18 -3 23 4
14 7 -11 10 -10 16 3 8 23 8 27 -4 20 -18 -11 -11 3 15 31 14 15 28 24 32 20
4 -3 -2 -12 -12 -20 -17 -12 -17 -13 3 -18 17 -5 20 -12 16 -39 -3 -29 -2 -31
6 -11 5 12 14 22 21 22 6 0 2 -14 -10 -35 -11 -19 -17 -35 -13 -35 11 0 52 78
52 98 0 15 2 15 10 2 5 -8 10 -10 10 -4 0 6 6 11 14 11 9 0 12 -7 8 -16 -4
-12 0 -11 18 4 l23 20 -7 -22 c-6 -19 -4 -22 10 -16 13 5 16 3 11 -10 -10 -25
9 -20 31 8 24 30 32 32 25 6 -3 -13 2 -21 15 -25 14 -5 18 -13 14 -33 -3 -17
-1 -24 6 -19 6 3 13 2 16 -3 3 -5 -1 -12 -10 -15 -29 -11 -3 -26 49 -27 41 -1
47 -3 27 -9 l-25 -8 28 -1 c27 -1 40 -21 14 -21 -8 0 -19 -10 -26 -22 -11 -22
-11 -22 -7 -2 l4 22 -34 -20 c-39 -23 -44 -33 -11 -25 12 4 27 3 34 -1 14 -9
8 -63 -9 -73 -10 -7 -9 -9 3 -9 9 0 19 7 23 15 3 8 10 15 16 15 6 0 9 -4 6 -9
-3 -5 4 -12 17 -16 19 -6 15 -8 -22 -17 -28 -6 -40 -13 -32 -18 7 -4 23 -5 35
-3 17 4 18 3 6 -6 -8 -6 -27 -11 -41 -11 -27 0 -57 -25 -45 -37 3 -3 6 -1 6 5
0 7 10 12 23 11 12 0 17 -3 10 -6 -9 -3 -10 -9 -1 -23 8 -13 16 -16 24 -9 8 7
12 2 12 -15 0 -15 -9 -29 -24 -37 -22 -11 -23 -14 -8 -30 15 -16 14 -17 -3
-13 -13 4 -20 0 -20 -10 0 -9 7 -16 15 -16 8 0 12 -6 9 -14 -3 -8 -1 -17 6
-20 9 -3 8 -7 -3 -15 -13 -9 -12 -12 5 -26 11 -9 15 -14 9 -11 -18 9 -26 -24
-10 -39 7 -8 16 -11 20 -8 3 4 6 2 6 -4 0 -15 38 -23 45 -9 3 6 3 -6 1 -27 -3
-24 -1 -35 5 -31 12 7 8 -28 -5 -37 -10 -8 3 -71 14 -64 8 5 7 -13 -3 -58 -4
-22 -27 -47 -27 -29 0 18 -27 15 -34 -4 -8 -21 -8 -24 5 -24 5 0 7 5 4 10 -8
13 -2 13 29 -1 24 -11 24 -13 11 -55 -9 -29 -10 -46 -3 -50 6 -4 5 -10 -3 -15
-11 -7 -10 -9 4 -9 9 0 17 5 17 11 0 6 5 7 13 2 6 -4 21 -8 31 -8 11 0 21 -6
24 -14 3 -10 0 -11 -9 -5 -19 11 -53 13 -59 3 -4 -5 -16 -2 -28 7 -22 15 -24
34 -7 77 5 12 2 17 -11 17 -14 0 -16 -2 -6 -9 11 -7 11 -9 -1 -14 -27 -10 -45
57 -24 90 4 6 4 19 0 29 -7 19 7 14 39 -14 11 -9 18 -11 18 -4 0 6 -5 14 -10
17 -6 4 -8 16 -5 28 5 19 4 20 -5 5 -14 -23 -43 -12 -35 13 4 11 2 19 -4 19
-6 0 -8 7 -4 16 5 14 3 15 -15 5 -11 -6 -23 -16 -26 -23 -3 -7 -2 0 1 16 4 20
3 27 -6 22 -6 -4 -11 -2 -11 3 0 15 -67 14 -73 -1 -4 -8 -6 -7 -6 3 -2 35 -50
26 -63 -11 -3 -8 -8 4 -12 28 -9 47 -18 52 -35 20 l-11 -23 6 24 c4 15 2 21
-4 17 -6 -3 -13 2 -15 11 -3 10 -5 3 -6 -15 -1 -22 -5 -31 -12 -26 -7 4 -9 22
-6 45 3 27 1 39 -9 43 -10 4 -14 -3 -14 -24 0 -38 -20 -50 -21 -13 -1 20 -3
22 -6 8 -10 -47 -14 -51 -27 -32 -13 16 -14 16 -19 -3 -3 -13 -10 -18 -21 -14
-18 7 -22 44 -5 44 5 0 7 5 4 10 -10 15 -23 12 -28 -7 -2 -10 -3 -6 -2 10 2
33 -18 31 -23 -2 -3 -16 -8 -21 -19 -17 -11 5 -13 2 -9 -10 3 -8 6 -19 6 -22
0 -4 5 0 10 8 6 10 10 11 10 3 0 -7 7 -13 16 -13 8 0 13 -4 9 -10 -7 -11 -33
-3 -58 18 -15 14 -17 13 -17 -4 0 -13 -3 -15 -8 -6 -14 22 -49 23 -55 1 -7
-26 -32 -24 -52 4 -16 21 -16 20 -10 -24 7 -47 -8 -78 -18 -39 -3 11 -9 20
-14 20 -11 0 -11 -59 0 -77 5 -7 5 -13 1 -13 -3 0 2 -12 12 -27 17 -27 17 -28
-1 -13 -17 14 -18 13 -13 -7 4 -13 2 -23 -3 -23 -5 0 -9 7 -9 15 0 8 -5 15
-11 15 -5 0 -8 3 -6 8 3 4 1 16 -3 27 -6 16 -8 13 -7 -12 0 -18 4 -33 9 -33 4
0 8 -7 8 -16 0 -8 -4 -13 -9 -10 -5 3 -8 -5 -7 -19 1 -23 2 -24 14 -8 10 15
12 12 8 -16 -4 -40 12 -110 31 -133 10 -11 12 -22 6 -33 -9 -16 -11 -16 -26 0
-10 9 -17 12 -17 6 0 -5 5 -13 10 -16 6 -3 10 -11 10 -17 0 -7 -6 -6 -15 2
-20 17 -19 1 2 -22 15 -17 15 -18 -5 -18 -12 0 -22 -4 -22 -10 0 -5 -4 -10
-10 -10 -5 0 -22 -13 -37 -29 -16 -15 -34 -26 -40 -24 -7 3 -13 0 -13 -6 0 -6
-3 -10 -7 -10 -5 1 -11 0 -15 -1 -5 -1 -12 -4 -18 -5 -5 -1 -11 -3 -12 -5 -9
-6 -50 -5 -54 2 -3 4 -12 1 -20 -7 -9 -8 -25 -15 -36 -15 -30 0 -102 -22 -110
-35 -5 -6 -11 -7 -15 0 -13 17 -31 16 -65 -5 -18 -11 -43 -24 -55 -29 -19 -9
-43 -39 -43 -55 0 -3 8 -6 18 -6 9 0 35 -18 56 -40 22 -22 43 -40 48 -40 4 0
8 -7 8 -15 0 -8 6 -14 13 -13 6 2 11 -2 10 -9 -2 -7 18 -24 43 -39 25 -14 43
-29 40 -31 -9 -9 -110 55 -153 97 -23 22 -44 37 -46 33 -3 -5 2 -35 10 -68
l15 -60 58 -1 c69 0 92 -15 84 -53 -4 -14 -9 -29 -11 -33 -5 -10 -33 2 -33 14
0 6 6 5 15 -2 12 -10 15 -10 15 4 0 17 -25 22 -34 7 -3 -5 -21 -5 -41 -1 -20
5 -33 4 -29 -1 3 -5 11 -9 19 -9 7 0 15 -12 17 -27 2 -18 10 -27 26 -30 25 -3
71 25 72 45 0 15 30 16 30 1 0 -5 -4 -7 -10 -4 -6 3 -7 -1 -4 -9 4 -11 17 -14
45 -12 24 3 42 -1 50 -10 6 -8 18 -14 25 -14 8 0 14 -5 14 -10 0 -7 6 -8 16
-2 17 10 74 4 74 -8 0 -5 8 -6 19 -3 10 3 23 -1 27 -9 15 -23 14 -76 -2 -89
-12 -10 -10 -14 12 -25 14 -8 33 -14 40 -14 8 0 23 -9 34 -20 27 -27 108 -63
149 -66 26 -2 34 1 38 16 3 11 9 20 14 20 5 0 9 11 9 25 0 14 -4 25 -10 25 -5
0 -10 8 -10 18 0 11 3 13 8 5 4 -6 6 23 4 65 -2 54 0 72 7 61 6 -9 12 -54 15
-100 6 -100 15 -151 27 -144 4 3 4 18 -2 32 -8 23 -6 30 15 50 15 13 27 19 31
13 13 -20 24 1 19 38 -3 27 -2 32 4 17 l9 -20 6 20 c3 11 5 1 3 -22 -2 -23 -1
-45 2 -48 3 -3 6 -13 7 -23 1 -9 10 -43 20 -75 13 -47 14 -61 5 -70 -10 -9
-11 -8 -6 7 3 10 2 24 -2 30 -5 6 -12 24 -16 41 -7 27 -9 28 -20 13 -7 -10
-15 -15 -18 -12 -3 2 -3 -7 0 -22 4 -20 -1 -31 -18 -44 -20 -15 -22 -21 -12
-49 7 -20 7 -31 1 -31 -6 0 -14 13 -20 28 -6 18 -17 28 -29 28 -11 0 -20 -4
-20 -8 0 -4 5 -8 10 -8 6 0 10 -5 10 -11 0 -6 -7 -8 -16 -5 -11 4 -14 1 -10
-12 3 -9 1 -24 -4 -32 -6 -10 -10 -11 -10 -2 0 6 -4 12 -10 12 -5 0 -10 -7
-10 -15 0 -9 -6 -12 -17 -8 -11 4 -12 8 -5 11 12 4 17 32 6 32 -3 0 -12 -7
-21 -15 -8 -9 -18 -13 -22 -10 -3 4 2 11 12 16 18 11 24 49 7 49 -5 0 -10 -6
-10 -14 0 -8 -5 -16 -10 -18 -10 -3 -14 -21 -20 -83 -1 -18 -3 -17 -13 5 -6
14 -16 29 -22 33 -6 5 -3 7 8 3 12 -4 17 0 18 17 1 12 3 32 4 44 2 16 -4 22
-26 25 -34 5 -40 -9 -6 -15 12 -2 -2 -5 -30 -6 -30 0 -53 3 -53 9 0 6 10 10
23 11 l22 1 -22 6 c-12 4 -31 19 -42 33 -18 24 -19 28 -5 33 9 3 25 6 37 6 20
1 21 2 5 14 -10 7 -15 20 -12 33 3 12 0 22 -8 26 -10 3 -14 -2 -13 -16 3 -25
-21 -57 -42 -57 -19 0 -16 -10 12 -31 26 -21 24 -43 -3 -53 -9 -3 -28 -13 -42
-23 -23 -17 -24 -17 -17 0 8 22 8 22 -61 -7 -31 -13 -66 -26 -77 -29 -16 -4
-14 -5 7 -6 15 0 30 -6 33 -11 3 -6 18 -7 33 -4 15 4 25 4 22 1 -10 -11 -90
-25 -90 -16 0 5 6 9 13 10 6 0 -6 6 -28 13 l-40 12 33 8 c54 13 43 23 -47 46
-47 12 -75 -3 -60 -31 6 -12 17 -18 25 -15 8 3 14 1 14 -4 0 -5 12 -13 27 -16
27 -7 27 -7 -12 -20 l-40 -12 32 -1 c34 -1 57 -20 26 -22 -12 0 -9 -4 10 -11
15 -5 27 -17 26 -26 0 -11 -2 -12 -6 -4 -2 6 -19 11 -36 11 -28 -2 -29 -2 -7
-6 14 -3 28 -10 31 -15 4 -6 19 -10 33 -10 15 0 28 -4 31 -8 2 -4 -10 -6 -27
-4 -44 5 -146 -14 -174 -33 -16 -10 -24 -11 -24 -4 0 7 -9 5 -24 -6 -24 -18
-28 -32 -5 -17 11 6 73 16 126 18 11 1 19 5 15 10 -3 5 5 6 19 3 13 -4 34 -7
47 -7 34 0 26 -15 -10 -18 -39 -3 -51 -12 -17 -12 13 0 33 -8 44 -17 19 -15
19 -15 -10 -10 -16 3 -39 9 -50 13 -19 7 -20 6 -1 -8 14 -11 16 -17 6 -23 -7
-4 -16 -2 -20 5 -5 7 -19 11 -34 8 -14 -3 -26 -2 -26 3 0 10 -48 5 -58 -6 -4
-4 -1 -5 6 -1 6 4 12 2 12 -4 0 -6 5 -8 10 -5 6 3 10 1 10 -6 0 -6 8 -9 20 -6
13 3 20 0 20 -9 0 -8 9 -14 19 -14 11 0 34 -14 51 -31 l31 -32 -28 -18 c-15
-11 -34 -17 -41 -14 -7 3 -10 0 -7 -5 3 -6 13 -10 20 -10 9 0 14 -9 12 -22 -1
-12 4 -23 11 -24 26 -3 26 -6 3 -15 -18 -7 -27 -5 -38 8 -11 15 -11 11 1 -19
14 -36 12 -108 -4 -108 -4 0 -5 11 -3 24 4 17 -2 28 -24 43 -42 30 -63 35 -63
17 0 -10 -6 -14 -15 -10 -9 3 -15 0 -15 -8 0 -8 -7 -17 -16 -20 -25 -10 -30
-6 -11 8 13 11 15 19 8 37 -9 23 -10 23 -10 2 -1 -16 -6 -21 -21 -18 -11 2
-19 1 -19 -3 1 -4 1 -14 -1 -22 -1 -12 -3 -12 -8 2 -6 14 -18 9 -79 -32 -78
-52 -78 -73 0 -32 26 13 50 22 52 20 3 -3 -18 -15 -45 -28 -28 -13 -50 -27
-50 -32 0 -5 6 -6 12 -2 7 4 9 3 5 -1 -15 -17 -36 -13 -42 6 -8 24 -31 19 -27
-5 2 -10 -4 -16 -15 -17 -11 0 -13 -3 -5 -6 6 -2 12 -17 13 -31 0 -15 3 -21 6
-14 8 20 32 -17 33 -50 0 -21 -5 -28 -20 -28 -13 0 -22 -10 -28 -32 -8 -28 -6
-34 12 -43 23 -11 28 -24 29 -72 0 -22 4 -30 14 -26 9 3 11 0 7 -10 -3 -8 -1
-18 5 -21 6 -4 7 -14 4 -23 -5 -12 -2 -15 10 -10 9 3 17 2 17 -3 0 -5 -11 -12
-25 -16 -13 -3 -27 -15 -30 -25 -5 -15 -15 -19 -40 -17 -19 1 -38 -2 -42 -6
-4 -4 1 -6 12 -4 13 2 20 -3 22 -17 1 -11 0 -14 -3 -7 -6 13 -25 17 -23 5 4
-24 -4 -25 -16 -3 -10 18 -14 20 -15 8 0 -9 -8 -23 -18 -30 -13 -9 -18 -23
-16 -45 1 -24 -1 -30 -13 -26 -10 4 -11 8 -3 13 8 5 7 9 -4 13 -8 3 -18 2 -21
-3 -4 -6 -15 -10 -26 -10 -10 0 -18 -3 -18 -7 1 -5 1 -17 0 -28 -1 -17 -3 -18
-11 -5 -6 9 -10 10 -10 3 0 -15 -42 -10 -93 12 -21 8 -42 13 -47 10 -5 -3 -13
2 -18 11 -6 11 -11 13 -16 5 -14 -23 -68 -11 -127 28 -33 22 -60 34 -62 28 -2
-6 -12 3 -22 21 -11 18 -27 35 -37 38 -10 3 -16 9 -13 14 3 5 -2 21 -11 35
-10 15 -21 49 -25 77 -9 57 1 84 51 138 17 18 29 38 27 43 -4 13 29 47 45 47
10 0 9 3 -1 9 -10 7 -11 13 -2 30 7 13 8 21 2 21 -6 0 -8 7 -5 15 4 8 10 12
15 9 5 -3 9 2 9 10 0 10 -9 16 -21 16 -20 0 -20 2 -7 23 12 17 13 29 4 55 -6
18 -14 30 -18 27 -11 -12 0 136 12 150 7 8 10 20 7 27 -3 8 -6 4 -7 -7 -1 -17
-3 -16 -16 8 -9 16 -21 26 -28 24 -9 -4 -11 2 -8 19 2 13 11 24 19 24 8 0 12
4 8 10 -3 5 -12 7 -20 3 -8 -3 -15 0 -15 6 0 6 10 11 23 11 l22 1 -22 18 c-13
11 -23 29 -23 41 0 17 -3 20 -12 12 -16 -13 -36 6 -32 31 1 9 -2 19 -7 23 -5
3 -7 9 -4 14 4 7 -86 70 -101 70 -3 0 2 -10 10 -22 23 -32 20 -41 -8 -23 -23
15 -23 15 -20 -11 1 -15 -2 -38 -7 -51 -6 -16 -5 -22 1 -18 5 3 17 2 26 -3 14
-8 12 -10 -10 -14 -15 -3 -29 -1 -32 3 -9 15 -24 10 -18 -6 4 -10 0 -15 -11
-15 -9 0 -13 -4 -10 -10 3 -6 -1 -10 -9 -10 -9 0 -16 -7 -16 -15 0 -11 10 -14
42 -11 49 4 68 -1 68 -19 0 -7 8 -16 17 -19 15 -6 15 -8 3 -16 -13 -9 -13 -10
0 -11 8 -1 21 -1 28 0 6 1 12 -2 12 -8 0 -5 16 -19 35 -31 36 -22 45 -47 21
-56 -10 -4 -12 -13 -6 -32 4 -15 9 -34 11 -42 2 -8 10 -21 17 -28 18 -20 6
-28 -14 -11 -16 13 -16 12 -3 -11 8 -14 20 -29 27 -33 6 -4 12 -13 12 -19 0
-7 -5 -6 -15 2 -13 11 -15 8 -15 -13 0 -15 -10 -33 -25 -45 -18 -14 -23 -25
-18 -38 6 -16 5 -17 -9 -6 -14 11 -17 10 -23 -7 -3 -12 -4 -25 0 -30 3 -5 1
-12 -4 -15 -5 -3 -8 10 -7 29 2 40 -8 46 -19 13 l-7 -23 -8 25 c-5 16 -8 19
-9 8 -1 -9 -9 -22 -18 -27 -15 -9 -14 -10 10 -11 16 0 26 -4 22 -10 -3 -5 -12
-7 -20 -3 -10 3 -15 -1 -16 -13 0 -16 -2 -15 -9 4 -12 30 -17 28 -17 -8 0 -37
-2 -40 -48 -50 -76 -17 -181 33 -164 78 12 32 1 54 -23 46 -14 -4 -18 -2 -14
5 10 15 -4 14 -23 -3 -24 -20 -91 -28 -91 -10 0 8 -7 14 -15 14 -9 0 -20 12
-25 26 -6 14 -15 22 -20 19 -6 -4 -10 -3 -9 2 1 4 -1 16 -6 26 -6 15 -10 15
-23 5 -13 -11 -15 -10 -9 5 5 14 2 20 -13 24 -23 6 -27 23 -5 23 20 0 19 6 -5
30 -11 11 -20 27 -20 35 0 9 -9 15 -21 15 -17 0 -20 4 -15 22 3 13 6 26 6 31
0 4 4 7 9 7 4 0 6 -11 3 -25 -3 -19 0 -25 14 -25 14 0 16 2 6 9 -8 4 -13 14
-12 22 8 53 -17 51 -53 -4 l-28 -42 7 38 c7 40 4 43 -26 25 -22 -14 -39 -3
-22 14 7 7 12 19 11 28 0 10 -3 9 -9 -5 -5 -11 -9 -14 -9 -7 -1 6 -13 12 -27
12 -18 0 -24 4 -21 13 3 8 1 20 -4 28 -5 8 -9 -485 -9 -1158 l0 -1173 1450 0
c989 0 1450 3 1450 10 0 6 -8 14 -17 17 -45 17 -51 73 -13 124 24 34 10 49
-48 49 -31 0 -42 4 -38 13 2 6 10 29 17 50 14 42 65 101 79 92 6 -4 7 1 3 11
-5 12 -3 15 6 9 8 -4 16 -2 21 5 4 7 23 13 41 15 19 2 36 4 39 5 5 3 36 7 75
9 15 1 17 3 6 10 -11 7 -10 11 6 20 11 5 23 7 27 4 4 -4 18 6 32 22 l26 30
-41 12 c-23 6 -48 19 -57 27 -8 9 -27 16 -42 16 -15 0 -34 5 -42 10 -12 8 -11
10 8 10 12 0 22 5 22 10 0 6 -11 10 -24 10 -27 0 -42 15 -26 25 20 13 9 34
-22 41 -18 3 -37 13 -43 20 -5 7 -26 17 -45 22 -19 6 -28 11 -19 11 30 2 30
29 1 34 -26 4 -26 4 -4 12 12 4 22 11 22 16 0 5 7 9 16 9 8 0 13 4 10 9 -4 5
4 7 16 4 22 -4 22 -4 4 11 -11 9 -17 19 -13 22 9 9 59 -5 52 -15 -6 -11 19
-21 31 -13 14 10 15 52 2 52 -6 0 -3 9 6 19 12 14 14 20 5 23 -9 3 -8 8 3 18
14 13 14 16 0 26 -13 9 -11 12 11 18 29 7 37 26 11 26 -9 0 -12 5 -8 11 4 7 3
10 -2 7 -5 -2 -24 -10 -41 -17 -18 -7 -33 -17 -33 -21 0 -4 -22 -11 -50 -15
-44 -6 -50 -10 -50 -31 0 -19 -5 -24 -26 -24 -14 0 -48 -7 -75 -16 -43 -14
-56 -15 -90 -4 -21 7 -39 17 -39 21 0 5 19 13 42 20 35 9 39 12 25 21 -13 7
-24 5 -40 -5 -39 -26 -330 -322 -397 -403 -74 -90 -207 -220 -216 -212 -3 4
35 48 84 100 317 332 532 571 532 590 0 4 -16 -3 -36 -17 -50 -34 -131 -49
-264 -50 -81 0 -124 4 -147 15 -31 14 -48 42 -34 55 3 4 6 10 7 13 6 46 69
112 128 133 20 7 36 16 36 20 0 3 14 9 32 13 71 14 108 27 103 36 -4 6 3 10
14 10 12 0 30 9 41 20 11 11 23 20 26 20 4 0 13 8 21 18 8 9 11 11 7 3 -5 -10
-3 -12 5 -7 7 5 10 14 7 22 -3 8 -1 14 4 14 6 0 10 6 10 14 0 8 8 17 18 19 9
3 -8 5 -38 5 -49 -1 -51 -1 -20 -8 35 -7 35 -7 5 -9 -16 0 -36 3 -44 8 -19 12
1 33 49 49 l35 12 -35 -5 c-27 -4 -32 -3 -22 7 16 16 15 28 -3 28 -8 0 -15 4
-15 9 0 5 -24 9 -52 9 -72 0 -78 1 -78 12 0 6 24 10 53 11 28 0 45 3 37 6 -8
4 -22 14 -31 25 -9 10 -23 18 -30 18 -9 -1 -5 -8 10 -20 l23 -20 -28 0 c-15 0
-24 3 -21 7 14 13 -16 33 -42 27 -20 -4 -23 -3 -11 5 21 15 107 14 113 -1 4
-10 6 -10 6 0 1 6 8 12 16 12 8 0 15 4 15 10 0 5 -7 7 -15 4 -11 -5 -13 -2 -9
10 4 9 9 15 11 12 3 -3 11 0 19 7 33 29 44 37 51 36 20 -3 27 2 13 11 -13 8
-13 10 3 11 9 1 22 3 27 4 6 1 26 3 45 4 19 0 35 5 35 10 0 4 -12 7 -27 5 -28
-4 -28 -4 2 7 17 7 35 16 42 21 7 5 18 6 24 2 7 -4 9 -3 6 3 -4 6 3 11 16 12
51 3 68 7 75 18 4 6 13 13 21 15 8 2 25 13 38 25 14 12 28 22 32 21 3 -1 20 5
36 12 40 17 55 20 55 10 0 -15 74 -79 101 -89 15 -5 32 -5 40 0 11 7 10 9 -4
9 -12 0 -17 6 -15 18 3 15 16 17 92 17 65 0 90 4 94 13 3 11 1 11 -17 0 -18
-11 -23 -11 -31 2 -6 8 -9 22 -7 30 5 21 -14 38 -49 42 l-29 4 37 17 c39 18
63 15 72 -9 3 -8 11 -14 17 -14 8 0 9 3 0 14 -9 10 -6 13 17 11 47 -3 52 -5
52 -16 0 -6 -7 -8 -16 -5 -13 5 -14 4 -6 -7 7 -8 8 -18 4 -22 -4 -5 -1 -5 6
-1 7 4 12 2 12 -5 0 -7 -42 -56 -92 -109 -51 -53 -109 -116 -128 -141 -19 -24
36 27 123 115 l157 158 21 -23 c18 -22 19 -22 15 -4 -5 17 -1 20 27 22 26 1
28 0 12 -8 -14 -6 -3 -8 40 -8 82 1 87 0 81 -10 -9 -14 47 -21 63 -8 12 9 13
9 7 0 -5 -10 6 -13 46 -15 l53 -1 -50 -7 c-27 -3 -66 -5 -85 -4 -33 2 -34 1
-16 -12 11 -8 28 -14 38 -14 11 0 15 -5 12 -15 -4 -10 0 -15 11 -15 11 0 15 5
11 15 -4 12 2 15 27 14 23 -1 26 -3 10 -6 -40 -8 -25 -22 19 -18 26 3 45 -1
50 -8 6 -9 10 -8 18 3 7 12 10 12 10 1 0 -9 7 -11 23 -7 13 3 36 1 52 -3 17
-5 24 -10 18 -10 -7 -1 -13 -7 -13 -14 0 -15 36 -14 89 2 25 8 37 8 42 0 4 -7
17 -6 39 6 34 18 78 13 50 -6 -11 -7 -7 -9 15 -7 21 2 29 8 27 18 -3 12 -1 13
9 2 7 -6 20 -12 29 -11 10 0 11 2 2 6 -6 2 -12 9 -12 13 0 9 97 3 113 -7 4 -3
14 0 22 7 9 8 15 8 20 0 3 -6 11 -8 16 -5 5 3 6 -1 3 -9 -3 -9 -10 -16 -16
-16 -5 0 -6 5 -3 10 3 5 1 10 -4 10 -6 0 -11 -3 -11 -7 1 -14 27 -43 33 -37 8
8 13 -17 27 -136 13 -105 30 -171 54 -218 9 -17 16 -35 16 -40 0 -11 -88 -42
-120 -42 -14 -1 -47 -7 -75 -14 l-50 -13 70 -11 c39 -6 93 -14 121 -17 43 -6
58 -13 93 -49 40 -41 41 -43 24 -62 -22 -25 -53 -38 -53 -22 0 7 -5 6 -15 -2
-9 -7 -14 -19 -11 -26 3 -7 1 -16 -3 -19 -5 -3 -11 2 -15 10 -3 9 -18 15 -36
15 -17 0 -29 4 -26 9 3 4 -23 11 -57 15 -144 16 -162 18 -171 27 -6 5 -29 9
-52 9 -24 0 -46 4 -49 10 -3 5 -17 10 -29 10 -13 0 -29 7 -36 15 -7 8 -25 15
-41 15 -34 0 -39 17 -6 23 21 4 20 4 -3 5 -44 3 -52 -10 -35 -50 11 -28 12
-43 4 -67 -6 -17 -15 -31 -21 -31 -6 0 -7 -7 -4 -16 15 -39 -37 -80 -122 -95
-58 -11 -92 -31 -92 -55 0 -7 -8 -19 -18 -26 -9 -7 -30 -29 -46 -48 -16 -19
-36 -35 -44 -35 -29 0 -38 -31 -20 -78 13 -37 14 -47 2 -68 -7 -13 -13 -37
-14 -52 0 -30 -20 -57 -42 -57 -11 0 -11 -2 0 -9 10 -6 6 -11 -17 -19 -17 -6
-43 -29 -58 -51 -15 -22 -33 -40 -39 -41 -7 0 -15 -11 -18 -25 -4 -14 -11 -25
-16 -25 -6 0 -10 -12 -10 -27 0 -16 -6 -35 -13 -43 -21 -26 -75 -60 -95 -60
-21 0 -42 -21 -63 -61 -21 -40 -74 -80 -127 -94 -39 -11 355 -13 2301 -14
l2347 -1 0 910 c0 629 -3 910 -10 910 -6 0 -24 -7 -40 -15 -26 -14 -29 -14
-24 0 4 8 2 15 -3 15 -6 0 -18 16 -29 35 -19 35 -34 45 -34 23 0 -10 -2 -10
-9 0 -7 11 -9 11 -14 -2 -4 -9 -3 -16 1 -16 5 0 18 -13 30 -30 19 -25 20 -33
10 -49 -9 -15 -19 -19 -38 -15 -22 5 -23 4 -6 -6 17 -11 15 -15 -24 -40 -24
-16 -49 -26 -56 -23 -7 3 -14 -5 -16 -19 -2 -13 -9 -22 -16 -20 -7 1 -15 -5
-18 -13 -10 -25 -89 -20 -108 7 -13 18 -18 19 -31 8 -8 -7 -15 -9 -15 -4 0 4
-5 3 -11 -3 -12 -12 -26 -10 -69 10 -34 16 -49 32 -71 75 -17 32 -18 33 -13 8
7 -28 6 -28 -27 -21 -44 10 -84 36 -69 45 7 5 5 11 -6 21 -9 8 -19 13 -21 12
-12 -10 -23 2 -29 32 -3 19 -10 35 -14 35 -9 0 -40 117 -32 124 3 3 7 29 9 57
5 57 -10 83 -53 93 -13 4 -24 11 -24 16 0 6 -8 10 -17 10 -53 1 -140 152 -119
205 3 9 0 28 -8 43 -7 15 -12 38 -11 52 2 14 4 32 4 41 1 8 20 34 43 57 23 23
35 42 27 42 -8 0 6 10 31 21 35 16 64 21 126 21 69 -1 84 2 99 18 10 11 21 17
25 15 11 -7 22 43 15 64 -3 11 4 26 20 41 14 13 25 31 25 41 0 10 4 20 9 24 5
3 12 19 16 35 4 17 11 28 16 24 5 -3 9 2 9 10 0 8 -9 18 -20 21 -11 4 -18 11
-14 16 3 6 -4 13 -15 16 -20 5 -20 6 -4 19 10 7 13 14 7 14 -15 0 -10 40 7 51
23 14 1 10 -34 -7 l-32 -15 29 26 28 26 -28 -7 c-26 -7 -28 -6 -15 9 7 10 9
17 4 17 -5 0 -8 17 -8 38 0 31 -3 36 -19 34 -11 -2 -15 1 -11 8 8 12 -48 70
-67 70 -5 0 -8 7 -4 15 3 8 1 15 -4 15 -18 0 -10 17 13 29 l22 12 -23 -5 c-19
-4 -21 -2 -11 10 6 7 15 12 19 9 4 -3 11 2 14 11 4 9 13 14 21 10 14 -5 13 -2
0 24 -8 16 -14 35 -13 41 2 6 -5 13 -15 14 -11 2 -22 7 -25 11 -4 4 1 4 11 1
17 -6 17 -5 -2 21 -49 66 -68 84 -94 87 -16 2 -34 9 -42 15 -11 9 -15 9 -15 1
0 -6 5 -11 11 -11 5 0 7 -5 4 -10 -5 -8 -11 -8 -20 0 -7 6 -20 7 -30 4 -13 -5
-14 -9 -3 -16 13 -9 -7 -8 -102 9 -38 7 -50 15 -76 53 -31 47 -54 61 -54 35 0
-8 -3 -14 -7 -14 -21 3 -33 -3 -33 -17 0 -8 -4 -13 -9 -10 -5 4 -11 -20 -13
-51 -5 -69 18 -159 46 -187 20 -20 76 -31 76 -15 0 4 6 6 14 3 8 -3 17 -1 21
5 10 18 25 12 25 -9 0 -11 -7 -23 -16 -27 -11 -4 -14 -13 -9 -30 4 -16 2 -22
-5 -18 -13 8 -13 4 5 -39 8 -20 12 -36 8 -36 -4 0 -2 -5 5 -12 18 -18 15 -33
-3 -18 -9 7 -14 19 -11 27 3 7 1 13 -4 13 -5 0 -10 -19 -12 -42 -2 -27 -8 -42
-15 -41 -7 2 -10 -4 -7 -12 5 -11 -1 -15 -19 -15 -14 0 -37 -4 -51 -9 -17 -7
-26 -7 -30 2 -3 9 -7 8 -15 -3 -9 -12 -11 -10 -11 10 -1 24 -2 24 -10 4 -13
-32 -32 -41 -27 -12 2 12 2 17 0 11 -6 -17 -20 -17 -25 -1 -3 8 -9 4 -17 -10
-9 -18 -9 -22 1 -22 8 0 20 -9 28 -19 7 -11 17 -18 21 -15 4 2 11 -1 15 -7 4
-8 3 -9 -4 -5 -7 4 -12 2 -12 -3 0 -6 -7 -11 -16 -11 -9 0 -14 -6 -11 -12 2
-7 8 -13 13 -13 5 0 15 -4 22 -8 6 -5 16 -6 22 -2 10 6 50 -13 62 -30 4 -5 10
-6 14 -2 4 4 14 1 22 -6 12 -10 17 -9 25 5 10 15 13 14 27 -10 16 -26 15 -29
-7 -71 -13 -25 -21 -54 -18 -65 3 -12 2 -15 -1 -8 -5 10 -9 10 -22 0 -12 -10
-16 -10 -19 0 -7 20 -18 14 -20 -13 -4 -52 -6 -54 -23 -45 -10 5 -20 6 -24 3
-3 -3 -7 11 -7 33 -1 37 -2 37 -8 9 -4 -21 -13 -31 -29 -33 -13 -2 -26 -10
-29 -18 -5 -14 -53 -20 -53 -6 0 4 -16 7 -35 6 -19 -1 -35 2 -35 8 0 5 -4 7
-9 3 -6 -3 -9 16 -7 45 1 36 -2 50 -11 50 -7 0 -13 -9 -13 -19 0 -11 -4 -22
-9 -26 -6 -3 -6 -17 1 -36 6 -16 8 -33 4 -36 -21 -21 -125 14 -111 37 3 6 0 7
-7 5 -25 -10 -58 39 -65 92 -3 33 -1 53 6 57 13 9 15 26 2 26 -5 0 -12 -11
-15 -25 -15 -61 -52 4 -48 86 2 49 0 57 -13 53 -13 -5 -14 -2 -5 21 6 15 22
41 35 57 14 16 25 34 25 40 0 6 6 8 14 5 14 -6 26 6 86 83 19 25 38 48 43 51
4 3 5 17 2 30 -4 16 3 40 19 71 16 31 21 50 14 54 -7 4 -7 9 0 13 16 10 26 61
12 61 -6 0 -8 -4 -5 -10 3 -5 -4 -11 -17 -11 -46 -2 -51 -4 -56 -19 -4 -13 -3
-13 10 -2 13 10 17 10 21 0 4 -10 6 -10 6 0 1 18 21 15 21 -3 0 -9 -11 -21
-25 -27 -14 -6 -25 -15 -25 -20 0 -4 -5 -8 -11 -8 -6 0 -8 9 -4 20 7 24 -7 26
-25 5 -7 -8 -21 -15 -32 -15 -25 0 -33 -25 -18 -58 6 -15 8 -24 4 -20 -12 12
-34 -12 -34 -38 0 -12 -7 -29 -15 -38 -9 -8 -12 -22 -8 -32 5 -14 3 -16 -12
-11 -9 4 -24 2 -31 -4 -11 -9 -14 -7 -14 10 0 13 -4 19 -11 16 -6 -4 -13 2
-16 14 -5 18 -7 19 -20 5 -9 -8 -19 -12 -24 -7 -9 9 7 91 22 109 7 9 5 22 -5
43 -20 37 -20 41 -2 41 15 0 30 29 21 39 -3 3 -10 -1 -15 -9 -16 -26 -33 2
-21 33 12 30 26 37 16 9 -4 -16 0 -19 25 -20 19 0 30 4 30 13 0 10 7 12 29 5
22 -6 31 -5 35 6 3 9 -1 14 -14 14 -11 0 -20 4 -20 9 0 5 -10 12 -22 14 -17 3
-15 5 9 6 49 2 77 16 93 47 17 35 50 74 62 74 5 0 14 -12 21 -27 6 -16 18 -34
25 -42 7 -7 11 -20 8 -27 -3 -7 -1 -16 5 -19 5 -4 7 -11 4 -16 -4 -5 -1 -9 4
-9 6 0 11 9 11 20 0 11 5 20 11 20 6 0 8 -8 4 -19 -4 -13 0 -20 15 -24 17 -4
20 0 20 23 0 16 5 32 10 35 6 3 10 19 10 35 0 15 7 30 15 34 8 3 15 15 15 26
0 22 16 27 23 8 2 -7 6 2 9 21 l5 34 -106 -5 -106 -5 100 17 c81 13 93 18 65
22 -31 4 -30 5 13 6 27 1 46 6 42 11 -3 6 2 14 12 20 14 8 10 10 -22 16 -22 3
-53 10 -70 15 -25 7 -21 8 20 4 l50 -4 -40 15 -40 15 48 -5 c51 -5 59 5 27 32
-27 24 -25 34 4 23 13 -5 34 -6 46 -3 17 4 21 2 18 -12 -2 -10 3 -20 10 -22 7
-3 12 5 12 21 0 18 -5 26 -18 26 -22 0 -47 37 -29 43 8 3 5 14 -11 36 -13 17
-20 36 -17 41 3 6 2 10 -4 10 -5 0 -14 -8 -20 -17 -14 -26 -25 -9 -11 18 10
18 9 23 -3 31 -9 5 -14 14 -11 22 3 7 -2 18 -10 25 -8 7 -12 21 -8 33 3 13 -1
24 -11 29 -9 5 -13 17 -10 28 3 10 -1 29 -7 41 -7 12 -8 20 -2 16 5 -3 17 5
25 18 11 16 28 25 51 28 39 4 43 0 24 -21 -11 -11 -10 -13 5 -8 15 6 17 3 11
-15 -6 -20 -5 -21 9 -10 10 9 17 10 22 2 3 -5 4 -10 0 -10 -3 0 -1 -10 6 -21
6 -12 12 -31 14 -43 6 -56 32 -112 67 -147 21 -21 38 -42 38 -48 0 -6 9 -11
19 -11 48 0 51 177 5 233 -13 16 -24 35 -24 43 0 8 -8 14 -19 14 -10 0 -21 9
-24 20 -4 15 -14 20 -37 20 -17 0 -29 -4 -25 -9 3 -5 1 -12 -5 -16 -6 -4 -10
5 -10 19 0 14 5 26 10 26 6 0 10 4 10 10 0 5 -8 6 -17 3 -12 -5 -15 -2 -11 8
3 8 0 20 -8 26 -10 10 -13 10 -17 0 -2 -7 -7 -10 -10 -7 -3 3 2 21 10 40 13
31 16 33 22 15 7 -18 9 -17 19 10 11 28 12 28 7 3 -3 -14 -8 -34 -12 -44 -4
-12 -3 -15 5 -10 7 4 12 14 12 22 0 8 6 13 13 11 8 -1 12 9 11 30 -1 19 4 34
12 37 9 3 14 -2 14 -14 0 -10 4 -22 10 -25 6 -3 7 1 4 9 -3 9 -1 16 5 16 6 0
11 -4 11 -10 0 -5 5 -10 10 -10 6 0 10 17 10 38 0 20 5 44 11 52 8 12 10 9 6
-12 -2 -16 0 -28 6 -28 6 0 7 28 3 72 -4 52 -3 69 5 61 6 -6 11 -48 11 -95 1
-45 3 -75 5 -65 3 9 8 15 13 12 4 -3 6 4 3 15 -6 22 15 82 26 75 4 -2 19 22
34 53 15 32 39 71 52 86 14 16 25 35 25 42 0 16 44 64 58 64 8 0 9 -8 1 -26
-17 -47 -3 -36 21 16 23 48 42 62 55 39 14 -22 11 -85 -5 -119 -11 -24 -14
-46 -9 -70 3 -19 7 -27 8 -18 0 9 6 20 13 24 8 5 9 -5 5 -37 l-5 -44 17 33 17
33 10 -33 c6 -20 7 -49 2 -73 -5 -22 -10 -79 -11 -128 -2 -68 1 -84 10 -72 14
20 23 7 19 -28 -2 -19 2 -28 15 -32 11 -4 19 -14 20 -23 0 -12 3 -11 9 6 11
25 25 29 34 7 3 -8 12 -12 21 -9 8 3 15 2 15 -4 0 -17 -28 -22 -34 -6 -7 19
-22 11 -29 -16 -3 -12 -1 -17 5 -14 12 8 37 -25 38 -50 0 -20 0 -20 16 0 15
18 15 18 8 -5 -4 -17 -2 -22 7 -19 7 2 21 -4 31 -14 19 -19 58 -25 58 -8 0 6
5 10 11 10 7 0 9 -10 7 -25 -3 -14 -1 -25 4 -25 4 0 6 -11 2 -25 -4 -15 -1
-32 6 -40 11 -13 10 -14 -5 -9 -15 6 -16 4 -5 -15 11 -22 11 -23 -20 -16 -23
5 -35 3 -41 -6 -7 -11 -9 -10 -9 3 0 9 -6 21 -14 25 -8 4 -15 17 -17 27 -2 11
-10 21 -17 24 -7 2 -10 -2 -6 -12 10 -26 -7 -42 -23 -21 -13 18 -13 18 -13 -1
-1 -17 -3 -17 -23 6 -12 14 -30 24 -40 22 -9 -2 -20 4 -23 12 -3 9 -13 16 -21
16 -10 0 -11 -4 -5 -17 7 -11 6 -27 -3 -47 -7 -17 -18 -51 -24 -76 -7 -25 -14
-52 -17 -62 -4 -12 2 -18 25 -23 18 -4 52 -18 77 -32 39 -22 54 -25 100 -20
60 6 67 -2 30 -36 -21 -20 -22 -24 -8 -36 14 -13 12 -16 -14 -25 -56 -21 -68
-31 -56 -52 6 -10 12 -13 12 -6 0 17 20 15 20 -2 0 -8 9 -18 20 -21 11 -3 20
-14 19 -23 0 -11 -3 -12 -6 -4 -2 6 -9 12 -15 12 -6 0 -8 -7 -5 -14 4 -11 1
-13 -10 -9 -12 5 -15 2 -10 -9 4 -12 0 -15 -16 -11 -19 4 -18 1 8 -21 31 -27
45 -32 45 -17 0 4 16 7 35 5 40 -3 45 3 13 16 l-23 9 23 7 c12 3 22 13 22 22
0 13 3 12 15 -4 11 -15 15 -16 15 -4 1 8 8 2 15 -15 14 -29 14 -29 15 -5 0 18
3 21 9 11 7 -11 9 -11 14 0 4 9 6 7 7 -6 1 -12 7 -5 15 20 9 28 13 33 14 18 1
-16 6 -21 16 -17 11 5 15 -1 15 -26 0 -18 4 -29 10 -25 6 3 13 -2 17 -12 6
-15 9 -13 14 12 l7 30 1 -32 c1 -25 -3 -33 -16 -34 -11 0 -13 -3 -5 -6 6 -2
12 -13 12 -24 0 -22 10 -24 29 -7 11 10 13 10 7 1 -15 -28 6 -11 25 19 l21 33
-6 -33 c-5 -31 -4 -32 15 -21 16 8 23 8 29 -1 10 -16 16 -4 25 42 4 21 11 36
15 33 5 -3 7 15 6 41 l-3 46 18 -23 c10 -13 19 -27 19 -31 0 -5 4 -8 10 -8 5
0 6 8 3 18 -6 15 -5 15 10 3 10 -8 17 -9 17 -3 0 6 -10 14 -21 17 -16 6 -18 9
-8 15 7 5 17 6 23 3 5 -4 7 1 3 10 -18 45 -17 49 4 20 26 -35 39 -41 39 -19 0
8 6 17 13 19 9 4 8 8 -3 16 -8 5 -11 13 -7 18 4 4 19 -6 33 -22 l25 -30 -17
30 c-10 17 -23 37 -30 45 -6 8 -14 30 -18 49 l-6 34 25 -27 c14 -15 29 -25 34
-21 5 3 12 1 16 -4 3 -6 12 -8 20 -4 13 4 15 52 15 318 l0 313 -32 8 -33 8 33
3 c28 4 32 8 32 32 0 34 -34 49 -51 23 -10 -16 -10 -16 -5 0 7 23 -7 30 -36
19 -12 -6 -17 -10 -9 -10 11 -1 10 -5 -5 -15 -10 -8 -21 -11 -24 -7 -3 5 -15
13 -27 20 -32 16 -30 33 3 21 32 -12 34 -12 34 0 0 6 -7 10 -15 10 -8 0 -22
14 -31 31 -14 29 -14 33 0 47 15 15 16 14 16 -9 0 -34 23 -64 44 -56 9 4 16 3
16 -2 0 -7 65 -31 83 -31 4 0 7 281 7 625 l0 625 -622 0 c-343 0 -629 -4 -636
-8 -10 -7 -10 -15 1 -43 7 -19 13 -52 13 -74 -1 -36 -5 -41 -42 -60 -27 -13
-39 -25 -36 -35 4 -12 2 -13 -9 -4 -18 15 -58 13 -68 -5 -7 -10 -12 -8 -25 10
-10 13 -16 17 -14 9 1 -8 -7 -25 -20 -38 -12 -12 -22 -19 -22 -16 0 4 -6 1
-13 -5 -8 -6 -17 -8 -20 -4 -4 3 -7 0 -7 -7 0 -9 -5 -8 -14 5 -13 18 -13 18
-25 -1 -8 -12 -14 -15 -17 -7 -3 7 -12 9 -21 6 -11 -4 -14 -2 -9 5 5 8 2 10
-9 5 -12 -4 -13 -8 -5 -13 8 -5 2 -14 -18 -28 -16 -12 -32 -19 -36 -15 -3 3
-6 1 -6 -5 0 -7 3 -12 8 -12 12 -1 88 -70 77 -70 -9 0 -91 56 -132 90 -9 8
-13 7 -13 0 0 -6 -5 -8 -10 -5 -6 4 -7 11 -4 17 4 6 2 8 -3 5 -19 -12 -22 -47
-6 -63 22 -21 10 -27 -13 -6 -69 62 -269 190 -280 179 -3 -3 7 -12 23 -21 29
-15 92 -71 133 -118 33 -39 20 -35 -26 8 -45 42 -180 144 -190 144 -4 0 42
-48 101 -107 60 -60 115 -116 124 -126 11 -13 17 -14 23 -5 5 9 8 5 8 -10 0
-12 9 -41 20 -62 11 -22 17 -40 12 -40 -5 0 -17 17 -27 38 -14 27 -20 32 -22
19 -3 -9 9 -44 26 -77 35 -71 24 -71 -16 0 -19 34 -30 45 -36 37 -6 -8 -7 -6
-3 6 13 40 -179 282 -244 306 -14 5 -44 12 -68 15 -24 4 -51 11 -61 18 -13 8
-23 8 -37 0 -17 -10 -17 -11 -2 -12 12 0 15 -5 11 -16 -5 -13 -7 -13 -14 -2
-7 10 -9 10 -9 1 0 -8 -13 -13 -30 -13 -28 0 -45 20 -17 20 6 1 -1 8 -18 17
-51 27 -104 91 -111 134 l-7 39 -758 0 c-589 0 -759 -3 -762 -13 -4 -9 -6 -9
-6 1 -1 9 -121 12 -566 12 l-565 0 10 -26 c18 -48 13 -58 -18 -35 -21 15 -42
19 -80 17 -29 -1 -58 2 -65 6 -9 5 -7 8 4 8 9 0 19 7 23 15 5 13 -131 15
-1189 15 l-1195 0 0 -1366z m3664 1309 c-4 -22 -3 -25 5 -13 7 10 11 11 11 3
0 -7 7 -13 16 -13 10 0 14 6 11 14 -10 26 5 26 25 0 11 -14 23 -23 26 -20 2 3
-1 12 -7 20 -8 10 -9 16 -1 21 5 3 10 0 11 -7 0 -16 59 -64 59 -48 0 6 -5 21
-11 33 -11 21 -11 21 7 5 10 -9 24 -17 29 -19 29 -5 34 -12 29 -39 -4 -15 -1
-38 6 -50 16 -29 -8 -49 -27 -23 -16 21 -17 0 -2 -28 9 -18 8 -19 -10 -7 -11
6 -24 22 -30 35 -6 13 -16 23 -22 23 -7 0 -5 -10 6 -26 14 -22 15 -28 4 -35
-8 -5 -17 -9 -21 -9 -13 0 -9 18 4 22 8 3 4 12 -10 26 -27 27 -36 28 -29 2 3
-11 1 -20 -5 -20 -5 0 -12 9 -15 20 -3 11 -12 20 -19 20 -8 0 -13 3 -13 8 3
19 -2 33 -11 27 -6 -3 -7 1 -4 9 4 10 1 16 -9 16 -19 0 -31 33 -22 60 10 30
26 24 19 -7z m2801 -31 c-8 -8 -25 10 -19 20 4 6 9 5 15 -3 4 -7 6 -15 4 -17z
m-2518 -24 c-3 -8 -6 -5 -6 6 -1 11 2 17 5 13 3 -3 4 -12 1 -19z m-1347 -13
c7 -8 9 -15 4 -15 -5 0 -2 -5 6 -10 13 -8 12 -10 -5 -11 -11 -1 -27 -3 -35 -4
-22 -2 -51 15 -45 26 4 5 17 9 31 9 14 0 22 4 19 10 -10 16 11 12 25 -5z
m1340 -14 c0 -5 -9 -7 -20 -4 -11 3 -20 12 -20 20 0 11 4 11 20 3 11 -6 20
-15 20 -19z m24 -7 c3 -8 2 -12 -4 -9 -6 3 -10 10 -10 16 0 14 7 11 14 -7z
m-1304 -43 c16 -30 12 -36 -10 -16 -21 19 -26 35 -10 35 5 0 14 -9 20 -19z
m-73 -217 c-3 -3 -12 -4 -19 -1 -8 3 -5 6 6 6 11 1 17 -2 13 -5z m3020 -28
c-4 -9 -11 -16 -17 -16 -11 0 -14 33 -3 43 11 11 26 -10 20 -27z m270 2 c-3
-8 -6 -5 -6 6 -1 11 2 17 5 13 3 -3 4 -12 1 -19z m-372 2 c-3 -5 -11 -10 -16
-10 -6 0 -7 5 -4 10 3 6 11 10 16 10 6 0 7 -4 4 -10z m51 -7 c-4 -9 -2 -19 4
-23 36 -22 -112 -102 -149 -80 -13 7 -10 9 14 10 27 0 75 19 49 20 -6 0 -11 6
-11 14 0 9 7 12 16 8 9 -3 13 -2 9 3 -4 4 9 20 30 36 44 33 46 34 38 12z m961
-55 c-3 -7 -5 -2 -5 12 0 14 2 19 5 13 2 -7 2 -19 0 -25z m-876 -34 c4 -10 8
-14 8 -8 1 7 8 15 17 18 12 4 14 1 9 -14 -5 -16 -3 -19 11 -13 13 5 16 3 12
-9 -5 -11 0 -14 20 -11 15 2 21 0 14 -3 -10 -5 -10 -9 -1 -20 6 -8 16 -11 21
-8 6 4 8 -1 4 -14 -4 -13 -1 -22 9 -26 18 -7 22 -86 3 -86 -6 0 -9 -2 -6 -5 7
-7 58 16 58 26 0 5 -7 6 -16 2 -12 -4 -14 0 -8 21 4 16 1 33 -7 44 -11 14 -9
13 9 -2 12 -11 22 -25 22 -32 0 -6 14 -17 31 -23 30 -10 31 -10 25 14 -7 29
-3 31 18 9 9 -8 16 -27 16 -40 0 -23 2 -24 15 -10 8 8 12 21 9 29 -3 8 1 17 8
19 9 4 13 -5 14 -29 0 -21 -3 -29 -8 -21 -6 10 -8 9 -7 -2 0 -8 13 -31 30 -50
16 -19 27 -26 23 -16 -5 13 -4 17 4 12 8 -5 10 -2 6 8 -3 9 -1 16 5 16 6 0 11
-7 11 -16 0 -10 6 -14 14 -11 9 4 12 0 9 -13 -3 -10 0 -21 6 -24 6 -4 11 0 11
11 0 10 5 25 11 33 8 12 9 10 4 -9 -5 -16 -4 -21 4 -17 7 5 9 1 5 -9 -8 -20
23 -55 50 -55 14 0 17 -3 9 -11 -7 -7 -8 -22 -1 -46 7 -25 6 -38 -3 -49 -10
-13 -10 -17 2 -25 11 -7 10 -9 -5 -9 -16 0 -16 -2 -5 -16 10 -13 10 -17 -2
-25 -11 -7 -11 -9 -1 -9 9 0 12 -10 10 -27 -2 -16 -7 -27 -13 -25 -15 5 -26
-38 -15 -58 13 -24 13 -33 0 -25 -9 5 -12 -1 -9 -21 0 -4 -5 -10 -13 -15 -10
-6 -9 -12 7 -24 14 -12 16 -18 7 -21 -6 -3 -10 -10 -6 -15 3 -5 -7 -9 -23 -9
-34 0 -60 -14 -44 -24 8 -5 8 -13 1 -26 -15 -27 -12 -40 8 -41 14 0 14 -2 -3
-9 -14 -6 -15 -9 -5 -10 13 -1 13 -2 0 -13 -9 -7 -17 -28 -18 -47 -2 -19 -8
-39 -14 -45 -8 -7 -9 -5 -5 8 5 12 3 16 -4 11 -6 -4 -15 0 -20 7 -6 10 -9 11
-9 2 0 -7 -5 -13 -11 -13 -7 0 -9 10 -7 24 5 25 -14 42 -33 30 -12 -7 -11 -1
1 32 10 24 9 26 -5 14 -14 -12 -15 -10 -9 16 4 16 12 36 18 44 6 8 -1 6 -14
-5 -14 -11 -28 -24 -32 -30 -4 -5 -8 4 -8 21 0 23 -5 33 -20 37 -14 3 -20 14
-20 31 0 23 -5 28 -27 25 -10 -1 -25 30 -18 41 4 6 -5 10 -21 10 -21 0 -25 4
-21 19 3 12 -1 22 -10 25 -8 4 -13 13 -10 20 3 8 -2 17 -11 21 -14 5 -14 7 -2
15 8 5 11 12 7 17 -4 4 -17 1 -29 -6 -14 -9 -18 -9 -13 -1 4 7 1 16 -6 21 -11
7 -11 9 -1 9 18 0 -11 30 -30 31 -7 0 -5 4 6 8 17 7 16 9 -8 24 -15 10 -26 13
-26 7 0 -6 -5 -8 -10 -5 -6 4 -7 12 -3 18 3 7 -4 3 -17 -8 -20 -17 -23 -18
-17 -3 4 11 2 17 -6 15 -7 -1 -11 4 -9 12 2 7 -3 11 -10 9 -8 -4 -14 4 -15 20
0 13 -6 27 -11 31 -14 8 -23 61 -11 61 16 0 10 18 -8 22 -15 3 -15 4 1 21 10
10 15 21 11 25 -3 4 -11 -1 -16 -11 -6 -9 -14 -17 -19 -17 -5 0 -1 16 10 35
24 43 24 45 5 45 -19 0 -19 9 1 31 14 16 13 18 -15 24 -17 4 -31 11 -31 17 0
6 9 8 20 5 13 -3 20 0 20 9 0 8 5 14 11 14 8 0 8 4 1 13 -6 6 -11 17 -12 22 0
6 -11 9 -23 8 -18 -2 -16 0 6 8 15 6 27 15 27 19 0 5 23 16 52 25 38 11 55 12
65 4 7 -7 16 -9 20 -5 3 3 1 6 -5 6 -7 0 -12 4 -12 9 0 17 33 5 41 -15z
m-4111 -9 c7 -8 9 -15 6 -15 -4 0 -14 7 -22 15 -9 8 -11 15 -6 15 5 0 15 -7
22 -15z m5018 -45 c0 -9 -3 -7 -8 5 -5 11 -8 29 -8 40 0 16 2 15 8 -5 4 -14 8
-32 8 -40z m-435 -44 c33 -14 38 -15 35 -2 -2 8 0 15 5 15 4 1 7 -2 8 -6 0 -5
5 -14 11 -20 8 -9 7 -13 -3 -13 -10 -1 -10 -3 2 -10 9 -5 33 -8 53 -6 26 2 33
-1 26 -8 -6 -6 -16 -11 -23 -11 -7 -1 -11 -7 -9 -15 3 -12 1 -13 -9 -2 -7 6
-28 12 -45 12 -32 0 -64 21 -64 41 0 6 -3 8 -7 6 -5 -3 -17 7 -27 21 -13 17
-15 24 -5 20 8 -4 31 -14 52 -22z m-78 -53 c4 -18 3 -33 -2 -33 -13 0 -44 69
-37 82 10 15 31 -12 39 -49z m300 -42 c-4 -17 -3 -21 3 -12 15 21 24 -4 16
-44 -3 -19 -10 -35 -16 -35 -5 0 -7 4 -4 9 3 5 -2 12 -11 15 -9 4 -20 1 -24
-6 -7 -10 -11 -10 -21 1 -11 11 -11 14 0 18 10 4 8 9 -5 19 -16 12 -16 13 -1
14 19 0 48 26 48 43 0 6 -7 1 -16 -11 -8 -12 -21 -22 -29 -22 -8 0 -18 -7 -22
-15 -7 -12 -10 -12 -20 4 -10 16 -8 19 19 25 18 3 32 14 35 25 4 17 8 18 30 8
19 -9 23 -16 18 -36z m-348 -21 c0 -19 -4 -27 -10 -21 -5 5 -6 18 -2 30 9 29
12 26 12 -9z m138 9 c-4 -5 -12 -9 -18 -8 -9 0 -8 2 1 6 6 2 9 10 6 15 -4 7
-2 8 5 4 6 -4 9 -12 6 -17z m85 -24 c7 -8 9 -15 6 -15 -4 0 -14 7 -22 15 -9 8
-11 15 -6 15 5 0 15 -7 22 -15z m325 -5 c3 -5 1 -10 -4 -10 -6 0 -11 5 -11 10
0 6 2 10 4 10 3 0 8 -4 11 -10z m-139 -37 c-10 -10 -19 5 -10 18 6 11 8 11 12
0 2 -7 1 -15 -2 -18z m54 -1 c0 -5 -7 -17 -16 -28 -8 -10 -14 -14 -11 -9 2 6
7 18 10 28 7 17 17 23 17 9z m-3846 -17 c-4 -8 -11 -15 -16 -15 -6 0 -5 6 2
15 7 8 14 15 16 15 2 0 1 -7 -2 -15z m3516 -15 c6 -11 7 -20 3 -20 -5 0 -14 9
-21 20 -7 11 -8 20 -2 20 5 0 14 -9 20 -20z m-4517 -33 c4 3 7 4 7 0 0 -17
-20 -14 -36 6 -19 22 -19 22 2 4 11 -9 24 -14 27 -10z m4966 -67 c-1 -32 -2
-33 -9 -10 -4 14 -8 36 -9 50 -1 20 1 22 9 10 5 -8 9 -31 9 -50z m-329 -92 c0
-5 -4 -8 -10 -8 -5 0 -10 7 -10 16 0 10 -6 14 -15 10 -18 -7 -19 0 -2 18 10
12 14 10 24 -8 7 -11 12 -24 13 -28z m607 30 c-3 -8 -6 -5 -6 6 -1 11 2 17 5
13 3 -3 4 -12 1 -19z m-270 -10 c-3 -8 -6 -5 -6 6 -1 11 2 17 5 13 3 -3 4 -12
1 -19z m968 0 c-4 -9 -24 -18 -45 -22 -21 -3 -47 -9 -57 -12 -13 -5 -12 -2 5
10 12 10 34 19 48 20 13 2 30 8 36 14 15 15 20 10 13 -10z m-1018 -40 c-3 -7
-5 -2 -5 12 0 14 2 19 5 13 2 -7 2 -19 0 -25z m1059 23 c-6 -9 -46 -22 -46
-15 0 3 10 9 23 14 29 11 29 11 23 1z m-6739 -7 c-3 -3 -12 -4 -19 -1 -8 3 -5
6 6 6 11 1 17 -2 13 -5z m12 -80 c2 -2 2 -6 0 -9 -8 -7 -49 7 -49 17 0 8 38 2
49 -8z m6625 -28 c-3 -13 -1 -35 6 -48 11 -22 10 -22 -4 -4 -18 22 -22 76 -6
76 6 0 8 -10 4 -24z m-1784 9 c0 -2 -10 -10 -22 -16 -21 -11 -22 -11 -9 4 13
16 31 23 31 12z m1760 -14 c0 -11 -4 -22 -9 -25 -11 -7 -20 14 -13 32 7 19 22
14 22 -7z m-5013 -23 c-3 -7 -5 -2 -5 12 0 14 2 19 5 13 2 -7 2 -19 0 -25z
m5113 -15 c-1 -24 -2 -26 -11 -10 -5 9 -7 22 -4 27 10 17 15 11 15 -17z
m-4573 -9 c-3 -3 -12 -4 -19 -1 -8 3 -5 6 6 6 11 1 17 -2 13 -5z m4488 -14 c3
-5 1 -10 -4 -10 -6 0 -11 5 -11 10 0 6 2 10 4 10 3 0 8 -4 11 -10z m-5208 -42
c-3 -8 -6 -5 -6 6 -1 11 2 17 5 13 3 -3 4 -12 1 -19z m-3 -34 c3 -8 2 -12 -4
-9 -6 3 -10 10 -10 16 0 14 7 11 14 -7z m-224 -49 c0 -17 -5 -25 -17 -25 -16
0 -16 2 -3 11 11 8 12 12 2 16 -6 2 -10 9 -6 14 10 18 24 9 24 -16z m5036 -82
c-10 -10 -19 5 -10 18 6 11 8 11 12 0 2 -7 1 -15 -2 -18z m-116 13 c0 -3 -4
-8 -10 -11 -5 -3 -10 -1 -10 4 0 6 5 11 10 11 6 0 10 -2 10 -4z m133 -39 c3
-8 1 -20 -4 -28 -6 -10 -9 -7 -9 14 0 29 5 35 13 14z m-1171 -39 c-7 -7 -12
-8 -12 -2 0 14 12 26 19 19 2 -3 -1 -11 -7 -17z m248 -27 c0 -6 -4 -13 -10
-16 -5 -3 -10 1 -10 9 0 9 5 16 10 16 6 0 10 -4 10 -9z m-5157 -27 c-3 -9 -1
-19 6 -23 9 -6 8 -11 -4 -21 -13 -11 -15 -8 -15 24 0 20 4 36 10 36 5 0 7 -7
3 -16z m-57 -21 c-4 -11 -2 -13 9 -9 8 3 15 2 15 -3 0 -12 -48 -23 -62 -15 -7
5 -3 10 11 16 15 5 21 13 17 24 -3 9 -2 12 5 9 6 -4 8 -14 5 -22z m5254 7 c0
-4 -12 -12 -27 -19 -21 -9 -25 -10 -16 -1 6 7 9 18 6 25 -3 10 2 12 16 8 12
-3 21 -9 21 -13z m245 10 c3 -5 1 -10 -4 -10 -6 0 -11 5 -11 10 0 6 2 10 4 10
3 0 8 -4 11 -10z m-5348 -42 c-3 -8 -6 -5 -6 6 -1 11 2 17 5 13 3 -3 4 -12 1
-19z m5433 -72 c0 -11 -19 -15 -25 -6 -3 5 1 10 9 10 9 0 16 -2 16 -4z m-5755
-36 c3 -5 1 -10 -4 -10 -6 0 -11 5 -11 10 0 6 2 10 4 10 3 0 8 -4 11 -10z
m5265 0 c0 -5 -4 -10 -10 -10 -5 0 -10 5 -10 10 0 6 5 10 10 10 6 0 10 -4 10
-10z m-4750 -10 c13 -8 12 -12 -4 -27 -18 -17 -18 -17 -13 0 4 9 2 17 -3 17
-6 0 -10 5 -10 10 0 12 11 13 30 0z m-99 -17 c13 -16 12 -17 -3 -4 -10 7 -18
15 -18 17 0 8 8 3 21 -13z m-391 -14 c0 -14 -17 -10 -23 5 -4 10 -1 13 9 9 7
-3 14 -9 14 -14z m5530 -12 c0 -4 -6 -2 -14 5 -8 7 -12 17 -9 22 5 8 23 -12
23 -27z m-3603 -9 c-3 -7 -5 -2 -5 12 0 14 2 19 5 13 2 -7 2 -19 0 -25z m3320
10 c-2 -8 11 -18 32 -25 l36 -11 -45 5 c-54 7 -56 8 -40 28 15 18 23 19 17 3z
m-4797 -33 c7 -9 8 -15 2 -15 -5 0 -12 7 -16 15 -3 8 -4 15 -2 15 2 0 9 -7 16
-15z m1500 -10 c0 -1 -7 -8 -15 -15 -13 -10 -15 -9 -15 8 0 15 5 20 15 16 8
-4 15 -7 15 -9z m4190 -35 c-19 -12 -35 3 -26 26 6 17 8 17 24 0 15 -15 15
-18 2 -26z m-6496 -16 c3 -8 2 -12 -4 -9 -6 3 -10 10 -10 16 0 14 7 11 14 -7z
m961 -2 c0 -18 -20 -15 -23 4 -3 10 1 15 10 12 7 -3 13 -10 13 -16z m1667 -14
c-6 -6 -16 -8 -22 -6 -9 3 -7 9 6 22 13 13 19 15 22 6 2 -6 0 -16 -6 -22z
m-655 -10 c-3 -7 -5 -2 -5 12 0 14 2 19 5 13 2 -7 2 -19 0 -25z m326 4 c-3
-12 -9 -22 -14 -22 -12 0 -11 7 3 30 15 24 19 21 11 -8z m207 18 c0 -5 -4 -10
-10 -10 -5 0 -10 5 -10 10 0 6 5 10 10 10 6 0 10 -4 10 -10z m4155 -21 c-6 -9
-45 -13 -45 -5 0 2 3 11 6 20 5 12 10 13 25 5 11 -5 17 -14 14 -20z m-6455 11
c0 -5 -4 -10 -10 -10 -5 0 -10 5 -10 10 0 6 5 10 10 10 6 0 10 -4 10 -10z
m5530 -7 c9 -8 -129 0 -142 9 -8 5 18 6 62 2 41 -4 77 -9 80 -11z m-4820 -3
c0 -5 -2 -10 -4 -10 -3 0 -8 5 -11 10 -3 6 -1 10 4 10 6 0 11 -4 11 -10z
m4860 0 c0 -5 -2 -10 -4 -10 -3 0 -8 5 -11 10 -3 6 -1 10 4 10 6 0 11 -4 11
-10z m-5585 -10 c3 -5 1 -10 -4 -10 -6 0 -11 -8 -12 -17 0 -15 -2 -15 -9 2 -5
11 -9 23 -9 28 -1 11 27 9 34 -3z m565 0 c0 -5 -2 -10 -4 -10 -3 0 -8 5 -11
10 -3 6 -1 10 4 10 6 0 11 -4 11 -10z m1722 -42 c-6 -6 -7 0 -4 19 5 21 7 23
10 9 2 -10 0 -22 -6 -28z m133 33 c3 -5 1 -12 -5 -16 -5 -3 -10 -11 -10 -16 0
-6 4 -8 9 -5 5 3 11 0 14 -8 3 -8 -1 -17 -10 -21 -13 -4 -14 -8 -4 -18 9 -9
14 -9 21 3 5 8 11 12 14 9 12 -12 -20 -39 -39 -33 -21 5 -31 39 -16 49 5 2 7
18 5 35 -3 29 8 41 21 21z m3125 -1 c16 -6 1 -7 -40 -3 -36 3 -67 7 -69 9 -8
8 84 2 109 -6z m-5714 -41 c-8 -21 -15 -27 -15 -16 -1 17 20 59 27 53 1 -2 -4
-19 -12 -37z m-336 21 c0 -5 -4 -10 -10 -10 -5 0 -10 5 -10 10 0 6 5 10 10 10
6 0 10 -4 10 -10z m2970 -34 c0 -5 -7 -3 -15 4 -8 7 -15 20 -15 28 0 13 3 12
15 -4 8 -10 15 -23 15 -28z m-2515 14 c3 -5 2 -10 -4 -10 -5 0 -13 5 -16 10
-3 6 -2 10 4 10 5 0 13 -4 16 -10z m5490 0 c-3 -5 -10 -10 -16 -10 -5 0 -9 5
-9 10 0 6 7 10 16 10 8 0 12 -4 9 -10z m42 -6 c-3 -3 -12 -4 -19 -1 -8 3 -5 6
6 6 11 1 17 -2 13 -5z m1304 -26 c11 -21 11 -22 -4 -9 -10 7 -17 17 -17 22 0
15 9 10 21 -13z m-4271 -34 c0 -2 -12 -4 -27 -4 -21 0 -24 3 -14 9 13 8 41 5
41 -5z m60 -34 c0 -11 -6 -9 -21 7 -12 11 -18 26 -14 33 8 13 34 -16 35 -40z
m-145 -20 c3 -5 -1 -10 -9 -10 -9 0 -16 5 -16 10 0 6 4 10 9 10 6 0 13 -4 16
-10z m-2475 -10 c0 -5 -4 -10 -10 -10 -5 0 -10 5 -10 10 0 6 5 10 10 10 6 0
10 -4 10 -10z m1873 -36 c-6 -16 -7 -16 -13 2 -10 26 0 52 12 31 4 -8 5 -23 1
-33z m3597 26 c0 -11 -4 -20 -9 -20 -5 0 -7 9 -4 20 3 11 7 20 9 20 2 0 4 -9
4 -20z m-3166 -55 c3 -8 1 -15 -3 -15 -5 0 -11 7 -15 15 -3 8 -1 15 3 15 5 0
11 -7 15 -15z m-29 -5 c3 -6 -1 -7 -9 -4 -18 7 -21 14 -7 14 6 0 13 -4 16 -10z
m4469 -40 c-6 -6 -10 2 -11 23 -2 30 -1 31 9 9 7 -14 8 -26 2 -32z m-4494 30
c12 -8 11 -10 -7 -10 -27 0 -29 -7 -6 -32 15 -17 15 -18 -3 -18 -16 0 -17 -2
-4 -10 8 -5 10 -10 4 -10 -26 0 -35 36 -19 73 8 19 14 21 35 7z m70 -51 c0 -5
-7 -6 -15 -3 -8 4 -15 13 -15 21 0 13 3 13 15 3 8 -7 15 -16 15 -21z m-49 4
c13 -16 12 -17 -3 -4 -17 13 -22 21 -14 21 2 0 10 -8 17 -17z m2959 -74 c-7
-11 -14 -18 -17 -15 -8 8 5 36 17 36 7 0 7 -6 0 -21z m-2406 -83 c-21 -31 -39
-54 -41 -52 -2 2 12 29 32 61 20 31 39 55 41 52 2 -2 -12 -30 -32 -61z m-165
-37 c1 8 4 12 7 8 9 -9 -9 -32 -28 -33 -12 -1 -16 6 -13 32 1 19 -2 34 -6 34
-5 0 -9 10 -9 23 1 16 8 8 25 -28 13 -27 24 -44 24 -36z m-1264 51 c3 -5 1
-10 -4 -10 -6 0 -11 5 -11 10 0 6 2 10 4 10 3 0 8 -4 11 -10z m432 -62 c-3 -7
-5 -2 -5 12 0 14 2 19 5 13 2 -7 2 -19 0 -25z m3644 9 c-10 -9 -11 -8 -5 6 3
10 9 15 12 12 3 -3 0 -11 -7 -18z m-2525 -54 c-10 -26 -18 -8 -9 23 5 21 8 24
11 11 2 -10 1 -25 -2 -34z m-49 5 c-3 -7 -5 -2 -5 12 0 14 2 19 5 13 2 -7 2
-19 0 -25z m-127 1 c-7 -11 -14 -18 -17 -15 -3 3 0 12 7 21 18 21 23 19 10 -6z
m-680 1 c0 -5 -2 -10 -4 -10 -3 0 -8 5 -11 10 -3 6 -1 10 4 10 6 0 11 -4 11
-10z m-267 -82 c-6 -116 -11 -120 -12 -10 -1 50 3 92 7 92 5 0 7 -37 5 -82z
m1004 45 c-3 -10 -5 -4 -5 12 0 17 2 24 5 18 2 -7 2 -21 0 -30z m2614 -6 c-8
-8 -11 -7 -11 4 0 20 13 34 18 19 3 -7 -1 -17 -7 -23z m618 -16 c-13 -4 -15
-2 -23 29 l-7 25 20 -25 c11 -14 15 -27 10 -29z m-4005 22 c-3 10 -1 17 5 17
7 0 15 -8 18 -17 6 -15 7 -15 13 3 6 17 8 17 19 -4 10 -18 10 -27 0 -38 -21
-26 15 -16 41 11 13 14 28 25 34 25 5 0 -3 -13 -18 -29 -16 -16 -26 -33 -23
-38 3 -5 -6 -13 -19 -20 -18 -8 -24 -8 -24 1 0 7 -18 30 -40 51 -40 39 -57 74
-20 40 18 -17 20 -17 14 -2z m637 -24 c4 -19 7 -28 8 -21 0 7 5 11 10 8 4 -3
13 6 20 21 6 14 14 23 17 20 3 -3 -2 -17 -11 -31 -20 -30 -13 -91 11 -100 10
-4 13 -13 9 -27 -6 -18 -4 -20 15 -14 21 7 22 5 16 -20 -4 -17 -3 -24 4 -20
13 8 13 -8 -1 -22 -6 -6 -9 -17 -7 -23 2 -6 16 5 31 27 15 21 27 33 27 27 0
-6 -13 -29 -28 -50 -28 -38 -30 -56 -8 -81 31 -34 36 -43 27 -43 -5 0 -11 -7
-15 -15 -4 -12 0 -14 22 -8 25 6 26 5 13 -11 -12 -14 -12 -21 -1 -41 7 -14 17
-25 21 -25 4 0 15 -14 23 -32 12 -23 13 -34 5 -39 -6 -4 -8 -12 -4 -19 5 -8 3
-11 -6 -8 -8 3 -13 13 -13 22 1 9 -5 16 -12 16 -8 0 -19 10 -23 23 -8 20 -10
20 -16 4 -6 -13 -11 -15 -21 -7 -10 9 -18 1 -37 -37 -14 -26 -28 -48 -33 -48
-4 0 -9 -11 -10 -25 -2 -17 0 -20 5 -11 6 8 11 9 15 3 3 -6 2 -13 -4 -17 -15
-9 -12 -25 5 -25 8 0 15 7 15 15 0 8 4 15 9 15 5 0 7 -9 4 -20 -3 -11 -12 -20
-19 -20 -8 0 -14 -6 -14 -14 0 -7 -10 -17 -22 -21 -13 -3 -18 -9 -11 -11 7 -3
9 -12 7 -19 -5 -11 4 -13 40 -11 26 1 52 8 58 14 20 20 32 13 14 -7 -13 -15
-14 -20 -4 -24 7 -2 -6 -3 -29 -2 -23 1 -40 -2 -37 -6 3 -5 0 -9 -6 -9 -6 0
-9 -4 -6 -9 3 -5 -4 -11 -15 -14 -15 -4 -19 -2 -15 9 7 19 -4 18 -21 -3 -14
-17 -14 -17 -9 0 3 9 2 17 -3 17 -5 0 -12 -11 -15 -25 -4 -14 -11 -25 -16 -25
-5 0 -7 -7 -4 -15 4 -11 0 -15 -16 -15 -22 0 -22 -3 -17 -55 3 -30 12 -68 20
-84 11 -21 13 -49 10 -98 -5 -61 2 -87 10 -37 6 36 24 57 51 57 18 0 26 5 26
17 0 26 11 50 22 50 6 0 8 -7 5 -14 -6 -16 16 -12 40 6 7 5 22 6 34 3 22 -7
22 -8 4 -21 -10 -8 -29 -11 -42 -8 -14 4 -23 2 -23 -5 0 -6 3 -10 8 -10 18 3
32 -2 32 -11 0 -5 -6 -10 -13 -10 -8 0 -22 -10 -33 -22 -10 -12 -13 -18 -6
-14 6 4 12 2 12 -3 0 -6 -7 -11 -16 -11 -8 0 -12 -4 -9 -10 3 -5 -4 -10 -16
-10 -16 0 -19 -3 -12 -12 16 -20 11 -48 -8 -48 -9 0 -20 5 -22 10 -3 6 -4 5
-3 -2 1 -7 17 -14 34 -16 44 -4 40 -20 -5 -24 -29 -2 -38 -7 -37 -21 2 -14 -1
-15 -12 -6 -11 9 -14 9 -14 0 0 -7 -5 -9 -10 -6 -8 5 -7 11 1 21 10 12 9 13
-6 8 -14 -6 -16 -4 -10 7 5 8 17 20 27 27 10 7 18 18 18 24 0 7 -6 5 -12 -4
-7 -8 -22 -18 -33 -22 -17 -6 -16 -4 5 20 l25 27 -25 -14 c-28 -16 -41 -30
-34 -40 2 -4 -3 -12 -11 -19 -9 -8 -15 -8 -15 -2 0 6 6 13 13 15 9 4 9 6 0 6
-7 1 -18 -5 -25 -13 -9 -9 -20 -11 -35 -5 -15 6 -23 4 -27 -8 -4 -8 -13 -13
-21 -9 -19 7 -19 -8 0 -24 28 -23 12 -67 -27 -74 -7 -1 -23 -7 -35 -14 -12 -7
-33 -12 -48 -12 -14 0 -28 -7 -31 -15 -8 -21 -107 -20 -143 1 -26 16 -31 15
-86 -5 -32 -12 -60 -20 -62 -17 -3 2 23 14 56 26 39 15 58 27 53 34 -3 6 -7
19 -8 29 -3 30 -4 32 -13 19 -6 -11 -11 -10 -25 3 -15 15 -16 15 -16 0 0 -14
-4 -14 -29 4 -16 12 -37 21 -46 21 -9 0 -13 4 -10 10 4 7 -2 7 -19 0 -14 -5
-32 -7 -39 -4 -8 3 -25 0 -39 -5 -18 -7 -29 -6 -39 2 -11 10 -11 9 -1 -4 10
-13 9 -19 -3 -29 -8 -7 -15 -21 -15 -31 0 -27 -38 -50 -60 -37 -13 9 -22 6
-39 -11 -11 -11 -28 -21 -36 -21 -8 0 -15 -6 -16 -12 0 -9 -3 -8 -6 2 -11 26
-27 36 -51 32 -17 -3 -23 -1 -18 6 4 6 -2 17 -14 24 -22 14 -26 33 -8 44 8 5
9 2 5 -9 -7 -18 1 -21 26 -11 9 3 12 14 9 29 -2 15 4 34 18 52 14 18 17 29 10
31 -6 2 -18 -5 -26 -17 -21 -30 -36 -26 -28 7 6 26 6 26 -9 7 l-16 -20 -1 20
c0 12 -10 -1 -26 -32 -13 -29 -26 -53 -28 -53 -7 0 8 67 18 79 6 8 16 26 23
40 6 14 12 20 12 14 1 -17 26 -16 40 1 13 16 54 29 45 15 -8 -13 10 -11 24 3
9 9 13 8 17 -4 7 -18 37 -17 61 3 15 12 17 12 12 -1 -2 -8 -26 -26 -52 -40
-26 -13 -43 -26 -38 -28 6 -2 20 2 31 7 13 7 22 8 26 1 4 -7 13 -6 26 1 15 7
29 7 51 0 17 -6 35 -8 42 -4 6 4 5 -1 -3 -10 -16 -20 -9 -21 36 -5 18 7 32 17
30 22 -4 12 17 36 30 36 5 0 20 10 33 23 14 12 28 21 32 20 4 -2 6 3 3 10 -2
6 -6 24 -9 40 -4 15 -13 27 -21 27 -8 0 -26 15 -40 34 -15 20 -38 36 -56 40
-32 6 -45 26 -35 53 5 12 10 13 18 5 8 -8 8 -15 -2 -27 -16 -19 -6 -20 13 0
14 13 19 11 43 -18 18 -21 29 -28 32 -19 3 10 10 8 26 -7 39 -36 127 -61 222
-64 80 -2 89 -4 86 -21 -5 -28 15 -10 27 25 10 28 9 30 -11 24 -13 -5 -18 -3
-14 4 4 6 3 27 -3 46 -7 27 -6 35 3 35 18 0 15 33 -4 51 -15 16 -22 19 -40 19
-5 0 -10 10 -11 23 0 21 -1 21 -11 -3 -10 -24 -10 -24 -18 -5 -6 14 -9 15 -9
5 -1 -9 -11 -17 -26 -18 -19 -1 -25 3 -25 18 0 11 -5 20 -12 20 -9 0 -9 3 0
12 9 9 16 7 32 -7 16 -15 20 -15 15 -3 -4 9 0 18 10 22 9 3 13 2 10 -3 -3 -5
0 -13 6 -16 7 -5 9 1 7 16 -2 16 -10 24 -23 24 -14 0 -21 8 -25 28 -5 26 -29
47 -72 63 -15 5 -15 7 0 25 9 10 24 19 32 19 21 0 40 20 40 42 0 10 4 18 10
18 5 0 21 12 35 26 22 22 25 31 19 58 -11 48 -10 71 4 68 6 -1 12 6 12 15 0
13 3 14 11 6 9 -9 15 -9 23 0 21 21 24 42 15 92 -6 33 -5 52 2 62 9 10 8 17
-1 28 -21 25 -5 27 22 3 36 -33 66 -49 72 -39 3 5 -1 11 -8 14 -16 6 -43 83
-34 93 12 11 82 11 92 0 6 -6 22 -34 36 -63 14 -28 28 -49 32 -46 5 2 8 -5 8
-16 0 -11 5 -23 10 -26 6 -4 8 -10 5 -15 -3 -4 2 -13 10 -20 12 -10 15 -10 15
0 0 8 3 10 7 7 3 -4 11 -3 17 2 8 7 11 -6 11 -45 0 -46 2 -53 17 -48 12 4 15
0 11 -16 -9 -34 16 -22 31 15 8 19 17 35 19 35 5 0 -8 -65 -19 -103 -5 -16 -3
-17 15 -5 16 9 19 20 16 43 -4 20 -2 25 4 16 6 -10 12 -3 21 25 7 22 19 43 26
47 8 4 14 15 14 24 0 12 -3 13 -13 4 -8 -6 -17 -8 -20 -4 -4 3 -7 1 -7 -5 0
-7 -6 -12 -14 -12 -8 0 -17 -6 -20 -12 -3 -7 -3 1 1 17 3 17 9 34 14 39 4 5 5
-1 2 -14 -4 -16 -3 -21 5 -16 7 4 12 15 12 25 0 10 7 24 15 31 8 7 15 17 15
22 0 5 -7 2 -16 -6 -21 -22 -27 -20 -18 7 9 28 6 90 -6 97 -15 10 -23 79 -10
95 7 8 8 15 3 15 -6 0 -15 -10 -21 -22 -10 -22 -11 -22 -11 -2 -1 11 4 25 11
32 9 9 9 12 0 12 -6 0 -16 17 -21 38 -14 48 -14 55 2 50 6 -3 15 -20 18 -39z
m469 11 c-6 -11 -20 -25 -33 -31 -12 -7 -26 -18 -30 -25 -4 -8 -13 -14 -20
-14 -10 1 80 89 91 90 1 0 -2 -9 -8 -20z m-3248 -74 c-7 -12 -21 21 -20 49 0
15 3 13 13 -10 7 -16 10 -34 7 -39z m2570 42 c-5 -7 -12 -22 -15 -33 -4 -16
-5 -15 -6 6 -1 27 6 39 22 39 6 0 5 -5 -1 -12z m420 -20 c-7 -7 -12 -8 -12 -2
0 6 3 14 7 17 3 4 9 5 12 2 2 -3 -1 -11 -7 -17z m-382 2 c0 -5 -2 -10 -4 -10
-3 0 -8 5 -11 10 -3 6 -1 10 4 10 6 0 11 -4 11 -10z m-1155 -45 c55 -25 106
-45 113 -45 6 0 12 -4 12 -10 0 -9 -27 0 -182 60 -32 13 -55 27 -52 31 7 12
-4 15 109 -36z m565 23 c13 -17 16 -28 8 -41 -6 -13 -6 -23 3 -33 6 -8 9 -17
6 -20 -3 -3 -10 3 -16 14 -6 11 -18 28 -27 36 -10 10 -11 16 -4 16 8 0 10 10
8 25 -6 31 -1 31 22 3z m971 -36 c-5 -10 -18 -25 -27 -33 -16 -12 -17 -12 -9
1 10 18 37 50 42 50 2 0 -1 -8 -6 -18z m-813 -17 c-6 -14 -13 -23 -15 -21 -5
5 15 46 22 46 3 0 -1 -11 -7 -25z m912 -10 c-33 -34 -50 -43 -50 -27 0 7 70
61 79 62 3 0 -10 -16 -29 -35z m150 10 c0 -6 -9 -11 -20 -11 -19 0 -25 7 -15
18 9 9 35 5 35 -7z m-307 -15 c-9 -11 -19 -17 -21 -15 -6 6 18 35 29 35 5 0 1
-9 -8 -20z m-1463 0 c0 -13 -11 -13 -30 0 -12 8 -11 10 8 10 12 0 22 -4 22
-10z m442 -35 c3 -14 1 -28 -3 -31 -5 -3 -9 9 -9 25 0 38 6 40 12 6z m1272 -3
c3 -5 -1 -9 -9 -9 -8 0 -12 4 -9 9 3 4 7 8 9 8 2 0 6 -4 9 -8z m-1506 -39 c24
-8 41 -17 39 -19 -6 -7 -117 30 -117 39 0 5 8 6 18 2 9 -4 36 -14 60 -22z
m1330 -8 c-14 -31 -28 -33 -20 -3 4 16 2 19 -8 13 -9 -5 -11 -4 -6 3 4 7 16
12 26 12 17 0 18 -3 8 -25z m82 5 c0 -5 -2 -10 -4 -10 -3 0 -8 5 -11 10 -3 6
-1 10 4 10 6 0 11 -4 11 -10z m80 -5 c11 -13 10 -14 -4 -9 -9 3 -16 10 -16 15
0 13 6 11 20 -6z m-1254 -47 c-8 -5 -7 -8 2 -8 15 0 34 -42 39 -85 3 -27 2
-28 -10 -13 -7 9 -22 25 -33 35 -11 10 -15 15 -10 11 6 -5 16 -8 23 -8 11 0
11 4 1 23 -7 12 -14 23 -15 25 0 2 -7 5 -15 7 -60 14 -74 28 -38 38 11 3 18 2
15 -3 -3 -4 2 -11 11 -14 23 -9 24 -8 25 17 0 21 1 21 8 2 5 -12 4 -23 -3 -27z
m-141 12 c3 -5 2 -10 -4 -10 -5 0 -13 5 -16 10 -3 6 -2 10 4 10 5 0 13 -4 16
-10z m368 -5 c-3 -9 -8 -14 -10 -11 -3 3 -2 9 2 15 9 16 15 13 8 -4z m-189
-11 c3 -8 2 -12 -4 -9 -6 3 -10 10 -10 16 0 14 7 11 14 -7z m1026 12 c0 -3 -4
-8 -10 -11 -5 -3 -10 -1 -10 4 0 6 5 11 10 11 6 0 10 -2 10 -4z m263 -13 c-7
-2 -19 -2 -25 0 -7 3 -2 5 12 5 14 0 19 -2 13 -5z m185 -14 c-30 -9 -104 -9
-143 0 -17 4 12 7 68 7 54 -1 88 -4 75 -7z m-1398 -45 c0 -8 -4 -12 -10 -9 -5
3 -10 10 -10 16 0 5 5 9 10 9 6 0 10 -7 10 -16z m-190 -24 c0 -4 -16 -7 -35
-6 -24 2 -35 -1 -35 -10 0 -8 -6 -14 -14 -14 -24 0 -6 38 23 48 26 9 61 -1 61
-18z m4272 6 c6 4 9 1 6 -6 -8 -24 -28 -23 -27 2 0 13 3 17 6 10 2 -6 9 -9 15
-6z m-4222 -7 c0 -5 5 -7 10 -4 6 4 19 -4 30 -17 25 -30 26 -48 0 -18 -11 13
-26 20 -35 16 -8 -3 -15 -4 -15 -2 0 3 -3 11 -6 20 -3 9 -1 16 5 16 6 0 11 -5
11 -11z m137 -22 c8 -16 7 -25 -3 -34 -10 -10 -13 -9 -12 5 0 9 -3 25 -7 35
-11 26 10 21 22 -6z m123 9 c9 -12 8 -15 -9 -13 -12 1 -21 7 -21 14 0 17 15
16 30 -1z m-289 -39 c-5 -4 -25 0 -45 9 -20 10 -31 21 -25 24 13 9 79 -23 70
-33z m3579 23 c0 -5 -4 -10 -10 -10 -5 0 -10 5 -10 10 0 6 5 10 10 10 6 0 10
-4 10 -10z m-3113 -32 c-3 -7 -5 -2 -5 12 0 14 2 19 5 13 2 -7 2 -19 0 -25z
m-183 -14 c9 -8 15 -30 15 -47 -1 -22 -3 -25 -6 -12 -3 11 -8 25 -13 30 -9 13
-20 45 -15 45 2 0 11 -7 19 -16z m3956 -34 c0 -5 -4 -10 -10 -10 -5 0 -10 -7
-10 -15 0 -8 -4 -15 -10 -15 -13 0 -13 6 2 30 14 21 28 26 28 10z m-4170 -5
c0 -2 -10 -9 -22 -15 -22 -11 -22 -10 -4 4 21 17 26 19 26 11z m996 -93 c-20
-20 -22 -1 -4 31 11 20 12 21 16 3 2 -10 -3 -26 -12 -34z m-699 16 c-3 -8 -6
-5 -6 6 -1 11 2 17 5 13 3 -3 4 -12 1 -19z m683 11 c0 -3 -9 -9 -20 -12 -19
-5 -27 3 -15 15 8 7 35 6 35 -3z m1924 -5 c23 -9 20 -24 -4 -24 -11 0 -20 7
-20 15 0 17 2 18 24 9z m1178 -16 c-7 -7 -12 -8 -12 -2 0 14 12 26 19 19 2 -3
-1 -11 -7 -17z m-1366 -8 c8 -8 19 -7 38 1 20 10 31 10 49 0 13 -7 27 -11 33
-10 13 3 44 -12 44 -22 0 -4 -7 -6 -15 -3 -8 4 -15 1 -15 -4 0 -6 9 -14 20
-17 11 -3 20 -11 20 -16 0 -5 7 -9 16 -9 8 0 12 -4 9 -10 -3 -5 6 -12 20 -16
26 -6 25 -27 -2 -22 -9 2 -18 -3 -21 -11 -3 -9 0 -11 8 -6 10 6 12 4 7 -8 -3
-9 -2 -17 2 -19 15 -6 -8 -48 -26 -48 -16 1 -17 1 -1 10 23 14 12 47 -21 59
-14 5 -20 10 -13 10 20 2 13 21 -8 21 -11 0 -20 4 -20 10 0 9 -32 25 -108 54
-57 21 -73 20 -42 -4 l25 -20 -27 0 c-16 0 -28 -4 -28 -10 0 -11 -17 -33 -62
-79 -20 -21 -24 -31 -15 -40 16 -16 -4 -13 -27 4 -13 10 -17 21 -12 39 5 20 3
26 -9 26 -21 0 -11 38 16 62 11 9 19 20 18 25 -4 23 2 35 17 29 8 -3 12 -2 9
4 -4 6 8 10 27 10 18 0 40 5 48 10 20 13 34 12 46 0z m254 1 c0 -5 -9 -7 -20
-4 -11 3 -20 7 -20 9 0 2 9 4 20 4 11 0 20 -4 20 -9z m-2794 -43 c-19 -26 -22
-7 -4 25 7 13 13 17 15 10 3 -7 -3 -23 -11 -35z m108 2 c-6 -5 -24 21 -24 34
0 6 6 1 14 -10 8 -10 12 -21 10 -24z m766 12 c0 -12 -3 -12 -15 -2 -8 7 -15
13 -15 15 0 1 7 2 15 2 8 0 15 -7 15 -15z m-10 -36 c0 -6 -5 -4 -10 4 -8 13
-11 12 -24 -5 -18 -23 -21 -13 -5 16 8 16 13 18 25 8 8 -6 14 -17 14 -23z
m1916 -34 c-9 -9 -46 30 -46 47 1 11 8 8 26 -13 14 -15 23 -31 20 -34z m-3166
33 c0 -8 -6 -15 -14 -15 -17 0 -28 14 -19 24 12 12 33 6 33 -9z m1390 -7 c0
-13 -26 -38 -33 -32 -9 10 5 41 19 41 8 0 14 -4 14 -9z m-956 -14 c3 -8 2 -12
-4 -9 -6 3 -10 10 -10 16 0 14 7 11 14 -7z m-549 -3 c-6 -5 -23 -12 -40 -16
l-30 -6 25 15 c28 17 60 22 45 7z m75 5 c0 -2 -7 -7 -16 -10 -8 -3 -12 -2 -9
4 6 10 25 14 25 6z m348 -16 c3 -7 0 -10 -7 -6 -6 4 -11 0 -12 -11 0 -16 -1
-16 -8 2 -5 11 -6 24 -4 28 7 11 26 3 31 -13z m922 10 c0 -5 -5 -10 -11 -10
-5 0 -7 5 -4 10 3 6 8 10 11 10 2 0 4 -4 4 -10z m17 -12 c-3 -8 -6 -5 -6 6 -1
11 2 17 5 13 3 -3 4 -12 1 -19z m-1227 -9 c0 -5 -7 -9 -15 -9 -7 0 -18 -6 -22
-14 -4 -8 -21 -18 -38 -22 l-30 -7 25 23 25 22 -24 -7 c-17 -5 -21 -4 -16 5 4
6 16 9 27 6 12 -2 27 2 35 10 15 14 33 11 33 -7z m1177 -25 c-9 -9 -28 6 -21
18 4 6 10 6 17 -1 6 -6 8 -13 4 -17z m43 6 c0 -5 -7 -7 -15 -4 -8 4 -15 8 -15
10 0 2 7 4 15 4 8 0 15 -4 15 -10z m1474 -28 c7 -12 -22 -44 -33 -37 -6 3 -11
16 -12 28 0 12 -3 16 -6 10 -2 -7 -14 -13 -26 -13 -20 1 -20 2 -4 11 9 5 17
16 17 24 0 11 5 11 30 -1 16 -9 32 -18 34 -22z m-2652 5 c-12 -13 -28 -24 -35
-24 -6 0 -22 -3 -34 -7 -13 -4 -23 -3 -23 2 0 13 30 26 52 23 12 -2 16 3 12
13 -5 12 1 16 22 16 l27 0 -21 -23z m105 -24 c-3 -10 -5 -4 -5 12 0 17 2 24 5
18 2 -7 2 -21 0 -30z m261 13 c-14 -28 -23 -35 -15 -13 4 9 2 17 -4 17 -6 0
-8 4 -5 8 3 5 12 9 20 9 12 0 13 -5 4 -21z m-583 2 c6 0 18 3 29 7 16 7 17 5
8 -12 -14 -25 -7 -33 29 -33 20 0 28 -6 31 -24 4 -19 1 -22 -14 -18 -10 2 -18
0 -18 -6 0 -6 -10 -14 -22 -18 -13 -4 -27 -12 -31 -18 -6 -7 -7 -5 -4 6 3 9 1
19 -6 22 -7 2 3 5 21 5 17 1 32 5 32 10 0 5 -18 8 -41 6 -32 -3 -40 -1 -35 11
4 10 -3 14 -24 14 -17 0 -30 5 -30 10 0 6 5 10 11 10 14 0 41 27 31 33 -4 2 0
2 8 -1 8 -2 20 -4 25 -4z m342 -10 c-3 -8 -6 -5 -6 6 -1 11 2 17 5 13 3 -3 4
-12 1 -19z m2770 -6 c-19 -20 -23 -37 -7 -27 6 3 10 -4 10 -16 0 -13 -18 -38
-44 -63 -92 -86 -183 -156 -202 -156 -13 0 -26 -38 -18 -52 3 -4 13 -8 23 -8
10 0 24 -7 31 -15 7 -8 19 -15 27 -15 8 0 13 -6 10 -12 -2 -7 -9 -12 -15 -11
-6 2 -24 4 -41 5 -19 1 -31 9 -34 20 -3 10 -9 18 -14 18 -10 0 -73 -86 -73
-100 0 -11 -71 -70 -86 -70 -6 0 -16 -10 -22 -22 -6 -13 -11 -17 -11 -10 -1 6
-6 12 -12 12 -8 0 -8 -5 1 -15 7 -8 22 -15 34 -15 22 0 120 52 131 70 3 5 10
10 15 10 10 0 -16 -79 -49 -152 -23 -51 -29 -56 -50 -35 -10 10 -11 9 -6 -4 5
-12 -7 -22 -45 -38 -29 -12 -50 -25 -47 -27 3 -3 26 5 51 17 26 12 49 19 52
17 2 -3 -11 -20 -31 -39 -40 -39 -44 -53 -12 -43 21 6 21 6 -3 -14 -39 -33
-17 -26 25 8 21 17 41 30 44 30 3 0 6 -47 7 -105 1 -97 2 -106 24 -125 13 -11
20 -23 16 -27 -4 -4 -10 -2 -14 4 -4 7 -18 10 -30 6 -16 -4 -22 -13 -23 -37
-1 -17 -2 -46 -3 -64 -1 -22 -9 -40 -23 -52 -28 -22 -30 -34 -4 -20 11 5 22
10 24 10 3 0 8 -30 12 -67 8 -85 44 -193 63 -193 10 0 12 6 7 18 -4 9 -9 29
-10 43 -2 14 -8 35 -13 46 -6 11 -16 51 -22 89 -6 38 -13 79 -16 92 -2 12 -1
22 4 22 4 0 13 -31 20 -68 6 -38 24 -105 39 -150 l27 -81 49 -11 c58 -12 99
-12 150 -1 32 8 37 6 37 -8 0 -24 29 -62 31 -41 1 8 1 19 0 24 -9 44 -9 126
-1 121 6 -3 10 -13 10 -20 0 -27 32 -108 51 -128 10 -11 16 -24 12 -30 -3 -5
-8 -5 -12 -1 -9 13 -42 15 -66 5 -41 -17 -92 -30 -141 -37 -43 -5 -52 -3 -58
11 -4 12 -13 15 -31 11 -27 -7 -32 3 -13 22 9 9 5 11 -20 8 -39 -4 -34 1 -70
-66 -16 -30 -43 -77 -60 -104 -18 -28 -32 -53 -32 -58 0 -25 203 -92 347 -114
24 -4 51 -13 60 -20 16 -12 11 -13 -31 -7 -33 4 -47 3 -43 -4 7 -12 -50 -39
-60 -29 -3 3 2 6 13 6 16 0 17 2 4 11 -13 9 -12 10 2 5 10 -3 20 -1 23 4 4 6
-5 10 -19 10 -14 0 -27 -4 -30 -9 -4 -5 -28 -3 -58 5 -29 7 -62 11 -74 8 -28
-7 -154 27 -130 36 15 5 14 8 -6 25 -14 12 -34 19 -50 17 -45 -5 -36 35 36
155 81 138 99 173 87 173 -5 0 -18 3 -28 7 -16 6 -17 5 -3 -12 13 -16 9 -15
-28 4 -24 12 -59 23 -78 25 -70 6 -157 124 -197 266 -34 124 -41 169 -39 265
1 55 6 114 11 130 5 17 10 24 10 18 1 -7 5 -13 10 -13 4 0 7 11 6 25 -2 14 0
25 5 25 4 0 6 11 5 25 -2 14 -1 25 2 25 8 0 58 -40 165 -132 104 -91 160 -122
76 -43 -27 24 -48 53 -48 63 0 10 -9 27 -21 38 -16 15 -22 16 -29 5 -6 -11
-21 -3 -64 34 -31 26 -56 49 -56 51 0 2 17 2 38 -1 89 -11 129 -13 141 -6 13
8 -80 21 -150 21 -22 0 -39 4 -39 8 0 5 15 7 33 5 32 -3 32 -3 5 8 -21 8 -26
17 -26 39 1 26 2 28 22 15 21 -14 45 -18 82 -16 12 1 38 23 62 52 23 29 42 46
42 40 0 -7 5 -9 10 -6 6 3 10 1 10 -4 0 -19 17 -12 34 15 14 21 15 31 6 59 -8
23 -16 32 -26 28 -18 -7 -18 2 1 31 11 17 22 22 40 18 17 -3 25 0 25 10 0 9
-11 14 -32 14 -18 1 -62 15 -98 31 -36 17 -73 34 -82 37 -17 5 -16 8 3 41 23
39 44 43 89 20 27 -14 34 -13 32 6 -1 3 21 30 48 60 l50 54 0 -36 c0 -20 -5
-60 -10 -89 -11 -58 -2 -80 31 -80 26 0 71 82 77 140 l4 48 34 -10 c35 -9 108
4 119 22 3 5 12 7 19 4 8 -3 28 12 47 35 19 22 38 41 43 41 5 0 2 -8 -7 -18z
m-3007 -2 c20 -12 9 -21 -18 -13 -12 3 -19 9 -16 14 7 11 15 11 34 -1z m437
-22 c-3 -7 -5 -2 -5 12 0 14 2 19 5 13 2 -7 2 -19 0 -25z m2219 20 c4 -6 3 -8
-4 -4 -6 3 -13 2 -17 -4 -3 -5 -1 -10 4 -10 6 0 11 -5 11 -11 0 -8 -5 -8 -15
1 -12 10 -13 16 -4 26 14 17 16 17 25 2z m-2323 -13 c-3 -9 -8 -14 -10 -11 -3
3 -2 9 2 15 9 16 15 13 8 -4z m2987 -30 c0 -33 4 -45 14 -45 8 0 18 5 21 10 3
6 13 10 22 10 14 0 15 -2 1 -17 -37 -43 -47 -119 -24 -175 18 -41 46 -69 46
-45 0 18 27 30 35 16 4 -5 12 -3 21 5 14 15 12 27 -11 81 -7 17 -20 45 -28 64
-19 43 -11 73 17 69 15 -2 20 -9 17 -23 -10 -53 -4 -57 79 -56 32 1 33 -1 17
-13 -12 -9 -14 -16 -8 -21 15 -8 3 -57 -17 -72 -14 -12 -13 -13 5 -13 16 0 20
-5 16 -20 -4 -15 0 -20 15 -20 12 0 24 -5 28 -11 10 -17 125 -2 141 19 12 15
13 14 11 -8 -4 -32 -69 -70 -122 -70 -28 0 -37 -3 -29 -11 5 -5 40 -10 77 -10
53 0 76 5 109 24 51 30 68 26 60 -14 -4 -22 0 -33 18 -49 13 -10 33 -20 44
-20 11 0 28 -12 39 -26 18 -25 18 -27 0 -65 -11 -21 -22 -39 -26 -39 -4 0 -5
-7 -2 -15 4 -10 0 -15 -11 -15 -9 0 -13 -5 -10 -10 4 -6 11 -7 17 -4 7 4 8 2
4 -4 -4 -7 -16 -12 -27 -12 -24 0 -26 -20 -1 -21 16 -1 16 -2 -1 -6 -9 -2 -14
-9 -11 -15 4 -6 3 -13 -2 -17 -23 -16 -123 -216 -130 -259 -3 -15 -7 -34 -10
-42 -3 -8 -7 -42 -10 -75 -2 -33 -6 -84 -9 -114 -2 -30 0 -60 5 -66 5 -6 11
-36 14 -66 9 -92 43 -216 69 -248 10 -12 7 -13 -18 -7 -16 4 -32 11 -35 15 -3
4 -18 4 -35 0 -24 -5 -25 -7 -7 -8 25 -1 30 -26 6 -35 -9 -3 -31 -6 -50 -6
-19 0 -34 -4 -34 -10 0 -5 -7 -10 -15 -10 -9 0 -34 -9 -56 -21 -52 -26 -62
-19 -13 10 20 12 34 24 31 27 -2 3 -42 -7 -88 -22 -92 -31 -184 -96 -276 -197
-47 -52 -54 -56 -77 -47 -31 11 -35 25 -5 17 16 -4 36 9 85 58 59 59 168 140
239 178 17 9 42 27 57 41 15 14 45 35 67 47 46 24 47 25 25 33 -8 3 -13 2 -10
-3 6 -10 -44 -34 -53 -26 -3 3 1 10 9 15 8 6 11 10 6 10 -5 0 -17 -7 -26 -15
-15 -13 -19 -13 -37 4 -15 14 -23 17 -32 8 -8 -8 -15 -6 -27 9 -14 17 -15 17
-10 1 5 -17 0 -18 -68 -14 -44 2 -82 10 -96 20 -18 13 -27 13 -49 4 -14 -6
-29 -16 -32 -20 -4 -5 -9 -4 -13 2 -4 5 6 17 22 25 16 8 32 22 35 31 5 12 -1
15 -28 15 -18 0 -36 4 -40 10 -8 13 -45 -21 -45 -42 0 -9 8 -22 18 -27 15 -9
15 -10 0 -11 -71 -1 -132 223 -94 345 13 43 13 47 0 30 -17 -23 -34 -80 -34
-118 0 -16 -10 -38 -25 -53 -14 -14 -23 -30 -20 -35 4 -5 -1 -9 -9 -9 -9 0
-16 -8 -16 -18 0 -59 -33 -2 -79 138 -26 77 -30 110 -32 238 -1 62 -5 115 -10
118 -5 3 -9 25 -9 50 0 50 -4 53 -30 22 l-18 -23 -7 28 c-26 104 101 429 214
545 46 47 55 52 46 21 -7 -20 -5 -20 21 5 16 14 32 26 36 26 5 0 8 6 8 14 0
12 17 21 59 31 14 4 73 54 79 68 2 4 12 7 23 7 13 0 19 7 19 24 0 15 11 32 28
45 42 31 52 27 52 -24z m-2790 31 c0 -3 -4 -8 -10 -11 -5 -3 -10 -1 -10 4 0 6
5 11 10 11 6 0 10 -2 10 -4z m-330 -16 c0 -5 -2 -10 -4 -10 -3 0 -8 5 -11 10
-3 6 -1 10 4 10 6 0 11 -4 11 -10z m241 -75 c19 6 27 -9 10 -19 -11 -7 -74 14
-83 28 -13 18 -9 25 17 32 14 3 26 11 27 18 1 6 3 -6 5 -27 4 -32 7 -37 24
-32z m-1821 45 c0 -5 -5 -10 -11 -10 -5 0 -7 5 -4 10 3 6 8 10 11 10 2 0 4 -4
4 -10z m1730 -11 c0 -5 -4 -9 -10 -9 -5 0 -10 7 -10 16 0 8 5 12 10 9 6 -3 10
-10 10 -16z m156 -17 c-2 -1 -16 0 -31 4 -18 4 -23 9 -14 14 11 7 53 -9 45
-18z m44 11 c0 -10 -4 -25 -10 -33 -8 -12 -10 -12 -16 3 -7 20 1 47 16 47 5 0
10 -8 10 -17z m-665 -21 c-3 -3 -11 0 -18 7 -9 10 -8 11 6 5 10 -3 15 -9 12
-12z m134 0 c-10 -7 -28 -10 -39 -7 -30 9 -16 21 24 21 32 0 33 -1 15 -14z
m1161 -37 c-7 -8 -16 -15 -21 -15 -5 0 -9 7 -9 15 0 9 9 15 21 15 18 0 19 -2
9 -15z m1248 -28 c-7 -13 -34 -64 -60 -113 -26 -49 -47 -86 -47 -83 -2 15 57
147 83 187 28 45 48 52 24 9z m-1988 -17 c0 -5 -2 -10 -4 -10 -3 0 -8 5 -11
10 -3 6 -1 10 4 10 6 0 11 -4 11 -10z m80 0 c0 -5 -9 -10 -20 -10 -11 0 -20 5
-20 10 0 6 9 10 20 10 11 0 20 -4 20 -10z m620 -18 c0 -4 12 -15 28 -25 l27
-17 -30 6 c-16 4 -33 9 -37 11 -12 6 -10 33 2 33 6 0 10 -3 10 -8z m-1247 -9
c-7 -2 -21 -2 -30 0 -10 3 -4 5 12 5 17 0 24 -2 18 -5z m1174 -15 c-3 -8 -6
-5 -6 6 -1 11 2 17 5 13 3 -3 4 -12 1 -19z m-1260 6 c-3 -3 -12 -4 -19 -1 -8
3 -5 6 6 6 11 1 17 -2 13 -5z m147 -9 c-10 -8 -23 -14 -29 -14 -5 0 -1 6 9 14
11 8 24 15 30 15 5 0 1 -7 -10 -15z m766 -25 c0 -6 -6 -10 -12 -11 -10 0 -10
-2 0 -6 21 -8 13 -20 -13 -20 -32 0 -38 9 -24 41 10 20 15 23 30 15 11 -5 19
-14 19 -19z m-826 11 c4 -5 -3 -7 -14 -4 -23 6 -26 13 -6 13 8 0 17 -4 20 -9z
m73 -47 c-50 -49 -105 -78 -121 -65 -7 6 -23 8 -37 5 -18 -3 -16 -1 9 11 42
20 41 25 -5 19 -36 -4 -36 -3 -11 7 18 7 25 16 22 27 -5 15 -4 15 6 0 12 -20
35 -25 25 -5 -4 6 0 4 8 -5 16 -20 51 -24 70 -8 70 58 86 65 34 14z m343 -5
c0 -4 -9 -9 -20 -12 -23 -6 -26 7 -7 27 11 13 26 4 27 -15z m2142 7 c19 -8 41
-22 48 -32 12 -14 12 -18 -5 -30 -10 -8 -27 -12 -37 -8 -28 9 -39 -3 -27 -33
12 -32 2 -44 -16 -19 -10 13 -21 17 -37 13 -20 -6 -19 -3 7 18 30 24 28 35 -9
48 -5 2 -6 15 -2 30 7 31 27 34 78 13z m-2112 0 c0 -3 -4 -8 -10 -11 -5 -3
-10 -1 -10 4 0 6 5 11 10 11 6 0 10 -2 10 -4z m-270 -50 c-32 -17 -103 -28
-95 -15 4 5 18 9 33 10 15 0 36 4 47 9 32 14 43 11 15 -4z m274 -17 c-25 -27
-37 -23 -18 6 9 14 20 22 26 19 5 -3 2 -14 -8 -25z m48 -8 c-9 -2 -20 -8 -24
-15 -5 -7 -8 -5 -8 6 0 22 32 41 42 25 5 -7 1 -13 -10 -16z m-441 5 c1 -6 1
-15 0 -20 -1 -4 15 -5 36 -1 l37 7 -24 -20 c-18 -14 -27 -17 -32 -9 -5 7 -8 2
-9 -13 -1 -14 -2 -32 -3 -40 -2 -8 -3 -23 -4 -32 -1 -10 -6 -18 -12 -18 -13 0
-13 36 0 61 13 24 2 24 -30 2 -24 -17 -25 -17 -10 2 26 34 37 44 43 38 3 -3 5
4 4 16 -1 22 -21 24 -23 3 -3 -25 -5 -27 -14 -12 -17 27 -11 45 15 46 14 1 26
-3 26 -10z m480 -13 c-12 -20 -14 -14 -5 12 4 9 9 14 11 11 3 -2 0 -13 -6 -23z
m-2424 -25 c-3 -8 -6 -5 -6 6 -1 11 2 17 5 13 3 -3 4 -12 1 -19z m3230 0 c-3
-8 -6 -5 -6 6 -1 11 2 17 5 13 3 -3 4 -12 1 -19z m-1337 -18 c0 -5 -5 -10 -11
-10 -5 0 -7 5 -4 10 3 6 8 10 11 10 2 0 4 -4 4 -10z m458 -15 c-3 -3 -9 2 -12
12 -6 14 -5 15 5 6 7 -7 10 -15 7 -18z m3562 -6 c15 -28 5 -23 -15 7 -9 15
-12 23 -6 20 6 -4 16 -16 21 -27z m-5900 9 c0 -12 -18 -19 -25 -8 -4 6 -11 7
-17 4 -6 -4 -8 -3 -5 2 7 11 47 13 47 2z m4095 -28 l20 -9 -20 1 c-11 0 -33 4
-50 8 l-30 8 30 0 c17 0 39 -3 50 -8z m-2329 -47 c-10 -10 -19 5 -10 18 6 11
8 11 12 0 2 -7 1 -15 -2 -18z m-1054 -28 c-2 -14 -12 -25 -21 -26 -9 0 -11 -3
-4 -5 17 -7 4 -34 -13 -27 -19 7 -18 20 6 40 11 10 20 23 20 30 0 7 4 13 9 13
4 0 6 -11 3 -25z m2418 16 c0 -5 10 -7 23 -4 21 4 21 4 2 -8 -11 -6 -32 -23
-47 -37 -15 -14 -33 -22 -42 -19 -10 4 -13 1 -9 -9 4 -11 0 -12 -18 -5 -45 16
-35 38 21 45 45 6 55 14 51 39 0 4 4 7 9 7 6 0 10 -4 10 -9z m-116 -16 c-7
-16 -24 -21 -24 -6 0 8 7 13 27 20 1 1 0 -6 -3 -14z m-2914 -31 c0 -8 -5 -12
-10 -9 -6 4 -8 11 -5 16 9 14 15 11 15 -7z m1880 -4 c0 -5 -4 -10 -10 -10 -5
0 -10 5 -10 10 0 6 5 10 10 10 6 0 10 -4 10 -10z m1875 -20 c3 -6 -1 -7 -9 -4
-18 7 -21 14 -7 14 6 0 13 -4 16 -10z m-2380 -64 c6 -5 -4 -1 -22 10 -18 10
-35 25 -38 33 -5 14 10 3 60 -43z m825 50 c0 -2 -7 -9 -15 -16 -13 -11 -14
-10 -9 4 5 14 24 23 24 12z m-2093 -15 c8 7 13 8 13 1 0 -10 -23 -22 -41 -22
-5 0 -9 8 -9 17 0 13 3 14 12 5 8 -8 15 -9 25 -1z m1204 -73 c-6 -24 -5 -38 2
-41 5 -1 -7 -3 -27 -4 -39 -1 -49 11 -16 20 11 3 20 14 20 24 0 17 20 47 26
40 2 -1 -1 -19 -5 -39z m5954 -28 c3 -5 1 -10 -4 -10 -6 0 -11 5 -11 10 0 6 2
10 4 10 3 0 8 -4 11 -10z m-5893 -22 c-6 -6 -15 -8 -19 -4 -4 4 -1 11 7 16 19
12 27 3 12 -12z m513 12 c-3 -5 -16 -10 -28 -9 -21 0 -21 1 -2 9 28 12 37 12
30 0z m970 0 c3 -5 12 -7 20 -3 8 3 15 1 15 -4 0 -10 -16 -13 -57 -13 -13 0
-23 -5 -23 -10 0 -18 -67 -12 -74 6 -9 22 3 32 15 14 6 -11 11 -12 17 -3 4 6
21 13 37 16 17 2 33 5 37 6 4 0 9 -3 13 -9z m398 3 c-7 -2 -19 -2 -25 0 -7 3
-2 5 12 5 14 0 19 -2 13 -5z m-1463 -33 c-34 -11 -60 -11 -35 0 11 5 29 8 40
8 16 0 15 -2 -5 -8z m480 6 c0 -3 -4 -8 -10 -11 -5 -3 -10 -1 -10 4 0 6 5 11
10 11 6 0 10 -2 10 -4z m-987 -13 c-7 -2 -21 -2 -30 0 -10 3 -4 5 12 5 17 0
24 -2 18 -5z m444 -9 c-3 -3 -22 -10 -42 -14 -21 -5 -34 -5 -29 0 14 13 84 27
71 14z m-390 -10 c-3 -3 -12 -4 -19 -1 -8 3 -5 6 6 6 11 1 17 -2 13 -5z m874
-36 l12 -23 -24 20 c-13 11 -26 21 -28 22 -2 2 3 3 12 3 9 0 22 -10 28 -22z
m-256 2 c-27 -12 -43 -12 -25 0 8 5 22 9 30 9 10 0 8 -3 -5 -9z m155 -10 c0
-5 -5 -10 -11 -10 -5 0 -7 5 -4 10 3 6 8 10 11 10 2 0 4 -4 4 -10z m1895 0 c3
-6 -4 -10 -17 -10 -18 0 -20 2 -8 10 19 12 18 12 25 0z m-285 -20 c0 -5 -4
-10 -9 -10 -6 0 -13 5 -16 10 -3 6 1 10 9 10 9 0 16 -4 16 -10z m3474 -15 c-4
-8 -8 -15 -10 -15 -2 0 -4 7 -4 15 0 8 4 15 10 15 5 0 7 -7 4 -15z m-5878 -42
c-10 -10 -19 5 -10 18 6 11 8 11 12 0 2 -7 1 -15 -2 -18z m524 -32 c0 -5 -9
-11 -21 -14 -16 -4 -18 -3 -8 9 13 16 29 19 29 5z m320 -41 c0 -5 -4 -10 -10
-10 -5 0 -10 5 -10 10 0 6 5 10 10 10 6 0 10 -4 10 -10z m-465 -40 c-3 -5 -12
-10 -18 -10 -7 0 -6 4 3 10 19 12 23 12 15 0z m2873 -35 c-3 -3 -9 2 -12 12
-6 14 -5 15 5 6 7 -7 10 -15 7 -18z m-2488 5 c0 -5 -5 -10 -11 -10 -5 0 -7 5
-4 10 3 6 8 10 11 10 2 0 4 -4 4 -10z m-495 -40 c-3 -5 -16 -15 -28 -21 -19
-9 -19 -8 3 10 28 23 34 26 25 11z m-402 -42 c-9 -15 -23 -8 -23 12 0 17 2 19
14 8 8 -7 12 -16 9 -20z m-99 -23 c-4 -8 -8 -15 -10 -15 -2 0 -4 7 -4 15 0 8
4 15 10 15 5 0 7 -7 4 -15z m-445 -75 c1 19 4 21 10 11 7 -11 10 -10 14 5 4
16 5 16 6 -3 1 -17 6 -21 19 -17 13 5 14 4 3 -4 -19 -14 -29 -79 -19 -126 5
-21 7 -41 4 -43 -2 -3 -9 20 -15 50 -8 38 -9 62 -1 81 14 37 12 45 -5 22 -8
-11 -15 -43 -16 -70 -1 -39 -3 -45 -8 -26 -5 14 -6 41 -4 60 l3 35 -10 -30
c-5 -16 -7 -45 -4 -62 4 -22 2 -33 -5 -33 -7 0 -10 4 -6 9 3 5 -4 12 -15 16
-26 8 -50 55 -49 97 l1 33 8 -28 c5 -16 14 -34 20 -42 6 -7 9 -18 8 -25 -2 -7
2 -14 8 -17 6 -2 11 9 12 26 0 16 5 38 11 49 5 10 8 30 5 43 -4 20 -2 19 10
-6 14 -30 14 -30 15 -5z m251 -16 c0 -8 -5 -12 -10 -9 -6 4 -8 11 -5 16 9 14
15 11 15 -7z m-160 -20 c0 -2 -7 -4 -15 -4 -8 0 -15 4 -15 10 0 5 7 7 15 4 8
-4 15 -8 15 -10z m152 -26 c-7 -7 -12 -8 -12 -2 0 14 12 26 19 19 2 -3 -1 -11
-7 -17z m-75 -10 c-3 -8 -6 -5 -6 6 -1 11 2 17 5 13 3 -3 4 -12 1 -19z m117
-25 c-18 -51 -18 -118 1 -133 13 -11 13 -14 -1 -27 -11 -11 -18 -12 -28 -4 -7
6 -15 9 -17 7 -2 -3 -5 27 -7 65 -3 70 7 104 37 126 25 18 30 6 15 -34z m66
31 c0 -9 -5 -12 -12 -8 -8 5 -9 2 -5 -10 4 -9 3 -15 -2 -12 -15 10 -34 -52
-27 -88 4 -19 16 -46 28 -61 21 -27 21 -27 1 -17 -22 12 -53 69 -53 96 0 24
25 79 44 99 21 21 26 21 26 1z m111 -11 c-12 -20 -14 -14 -5 12 4 9 9 14 11
11 3 -2 0 -13 -6 -23z m-29 -20 c-14 -29 -15 -103 -1 -119 9 -12 10 -17 0 -27
-10 -9 -11 -8 -5 7 5 13 4 17 -3 13 -6 -4 -16 -1 -22 7 -9 11 -8 29 5 75 10
34 21 61 26 61 5 0 5 -8 0 -17z m-66 -19 c-3 -9 -6 -29 -6 -45 0 -22 -5 -29
-19 -29 -21 0 -36 48 -20 65 7 7 8 4 3 -8 -5 -13 -2 -16 10 -11 10 4 15 12 12
19 -5 14 2 25 17 25 5 0 6 -7 3 -16z m25 -25 l-9 -34 -1 31 c-1 17 2 34 6 37
12 13 14 -1 4 -34z m-457 16 c11 -8 16 -15 12 -15 -5 0 -3 -6 3 -14 9 -11 8
-15 -4 -20 -9 -3 -14 -2 -10 3 8 14 -5 41 -21 41 -8 0 -14 5 -14 10 0 14 11
12 34 -5z m507 -16 c-5 -13 -10 -19 -10 -12 -1 15 10 45 15 40 3 -2 0 -15 -5
-28z m-440 -46 c13 -15 12 -15 -8 -4 -24 12 -29 21 -14 21 5 0 15 -7 22 -17z
m3759 -33 c8 -5 11 -12 8 -16 -4 -3 -14 1 -23 10 -18 17 -9 21 15 6z m-3600
-40 c0 -5 -4 -10 -10 -10 -5 0 -10 5 -10 10 0 6 5 10 10 10 6 0 10 -4 10 -10z
m3045 -29 c39 -9 39 -9 -20 -10 -73 -1 -113 8 -93 21 13 9 33 7 113 -11z m355
-52 c0 -6 -4 -7 -10 -4 -5 3 -10 11 -10 16 0 6 5 7 10 4 6 -3 10 -11 10 -16z
m-3425 -47 c-3 -3 -11 0 -18 7 -9 10 -8 11 6 5 10 -3 15 -9 12 -12z m3025 -12
c0 -5 -4 -10 -10 -10 -5 0 -10 -7 -10 -15 0 -8 -4 -15 -10 -15 -5 0 -7 -6 -4
-13 6 -15 -39 -42 -55 -33 -12 8 2 52 26 78 17 19 63 25 63 8z m-1635 -10 c4
-6 -6 -10 -22 -10 -22 0 -25 2 -13 10 19 12 27 12 35 0z m-68 -46 c-3 -3 -12
-4 -19 -1 -8 3 -5 6 6 6 11 1 17 -2 13 -5z m1354 -24 c-21 -18 -51 -27 -51
-15 0 6 53 34 65 34 6 0 -1 -9 -14 -19z m-2591 -11 c0 -6 -4 -7 -10 -4 -5 3
-10 11 -10 16 0 6 5 7 10 4 6 -3 10 -11 10 -16z m3560 -99 c0 -5 -4 -10 -9
-10 -6 0 -13 5 -16 10 -3 6 1 10 9 10 9 0 16 -4 16 -10z m-1116 -29 c3 -5 -1
-11 -9 -14 -9 -4 -12 -1 -8 9 6 16 10 17 17 5z m1166 -11 c8 -5 11 -10 5 -10
-5 0 -17 5 -25 10 -8 5 -10 10 -5 10 6 0 17 -5 25 -10z m-1200 -31 c0 -11 -4
-18 -10 -14 -5 3 -7 12 -3 20 7 21 13 19 13 -6z m1665 13 c-17 -4 -14 -7 15
-18 19 -7 27 -13 17 -13 -23 -1 -57 17 -57 29 0 6 10 9 23 9 20 -1 20 -2 2 -7z
m83 -68 c-3 -14 -5 -12 -10 9 -3 19 -2 25 4 19 6 -6 8 -18 6 -28z m32 10 c0
-8 -4 -12 -10 -9 -5 3 -10 10 -10 16 0 5 5 9 10 9 6 0 10 -7 10 -16z m-1780
-108 c0 -3 -4 -8 -10 -11 -5 -3 -10 -1 -10 4 0 6 5 11 10 11 6 0 10 -2 10 -4z
m-96 -101 c-10 -8 -23 -15 -28 -15 -6 0 -1 7 10 15 10 8 23 15 28 15 6 0 1 -7
-10 -15z m-34 -34 c0 -5 -9 -19 -20 -32 -21 -26 -27 -10 -8 21 13 21 28 27 28
11z m-50 -81 c-6 -11 -13 -20 -16 -20 -2 0 0 9 6 20 6 11 13 20 16 20 2 0 0
-9 -6 -20z m-1469 -93 c-10 -9 -11 -8 -5 6 3 10 9 15 12 12 3 -3 0 -11 -7 -18z"/>
<path d="M5513 5274 c0 -16 13 -19 21 -5 3 5 0 11 -7 14 -8 3 -14 -1 -14 -9z"/>
<path d="M5725 5130 c3 -5 8 -10 11 -10 2 0 4 5 4 10 0 6 -5 10 -11 10 -5 0
-7 -4 -4 -10z"/>
<path d="M5835 5040 c3 -5 8 -10 11 -10 2 0 4 5 4 10 0 6 -5 10 -11 10 -5 0
-7 -4 -4 -10z"/>
<path d="M5860 5039 c0 -5 5 -7 10 -4 6 3 10 8 10 11 0 2 -4 4 -10 4 -5 0 -10
-5 -10 -11z"/>
<path d="M6091 4853 c0 -13 2 -14 6 -4 5 11 7 11 14 0 7 -11 9 -10 9 4 0 9 -7
17 -15 17 -8 0 -15 -8 -14 -17z"/>
<path d="M6120 4820 c0 -5 5 -10 10 -10 6 0 10 5 10 10 0 6 -4 10 -10 10 -5 0
-10 -4 -10 -10z"/>
<path d="M3380 2931 c0 -25 6 -27 13 -6 4 8 2 17 -3 20 -6 4 -10 -3 -10 -14z"/>
<path d="M2942 2915 c0 -16 2 -22 5 -12 2 9 2 23 0 30 -3 6 -5 -1 -5 -18z"/>
<path d="M3395 2881 c3 -5 1 -12 -5 -16 -5 -3 -10 -12 -10 -18 0 -7 7 -3 15 7
18 23 19 36 4 36 -5 0 -8 -4 -4 -9z"/>
<path d="M3342 2842 c-12 -12 -22 -32 -22 -44 0 -12 3 -18 8 -14 4 4 7 12 7
16 0 5 8 15 19 23 10 8 17 20 14 27 -3 10 -10 8 -26 -8z"/>
<path d="M3407 2833 c-4 -3 -7 -11 -7 -17 0 -6 5 -5 12 2 6 6 9 14 7 17 -3 3
-9 2 -12 -2z"/>
<path d="M3357 2795 c-9 -20 -17 -41 -16 -48 0 -7 7 5 16 26 8 20 19 37 24 37
5 0 9 5 9 10 0 21 -17 8 -33 -25z"/>
<path d="M3290 2546 c0 -9 5 -16 10 -16 6 0 10 4 10 9 0 6 -4 13 -10 16 -5 3
-10 -1 -10 -9z"/>
<path d="M2820 2530 c0 -6 7 -10 15 -10 8 0 15 2 15 4 0 2 -7 6 -15 10 -8 3
-15 1 -15 -4z"/>
<path d="M3241 2494 c0 -11 3 -14 6 -6 3 7 2 16 -1 19 -3 4 -6 -2 -5 -13z"/>
<path d="M2675 2160 c-4 -6 -10 -8 -15 -5 -4 3 -11 -3 -14 -12 -6 -15 -8 -15
-16 -3 -6 8 -10 10 -10 4 0 -6 6 -17 14 -23 20 -17 56 3 56 29 0 22 -5 25 -15
10z"/>
<path d="M2411 2064 c0 -11 3 -14 6 -6 3 7 2 16 -1 19 -3 4 -6 -2 -5 -13z"/>
<path d="M2427 2035 c-4 -8 -2 -17 3 -20 6 -4 10 -4 10 -1 0 2 3 11 6 20 3 9
2 16 -4 16 -5 0 -12 -7 -15 -15z"/>
<path d="M2380 2022 c0 -6 -13 -25 -30 -42 -27 -28 -42 -58 -22 -46 17 10 65
87 58 93 -3 3 -6 1 -6 -5z"/>
<path d="M2267 1983 c-4 -3 -7 -13 -7 -20 0 -12 3 -12 15 1 8 8 15 17 15 20 0
8 -15 7 -23 -1z"/>
<path d="M2225 1950 c-3 -5 1 -10 10 -10 9 0 13 5 10 10 -3 6 -8 10 -10 10 -2
0 -7 -4 -10 -10z"/>
<path d="M5115 2720 c-3 -5 -1 -10 4 -10 6 0 11 5 11 10 0 6 -2 10 -4 10 -3 0
-8 -4 -11 -10z"/>
<path d="M5180 2700 c-8 -5 -12 -11 -10 -14 3 -2 14 2 24 10 22 15 10 19 -14
4z"/>
<path d="M5026 2654 c-29 -30 -34 -59 -10 -68 19 -7 34 1 34 18 0 7 9 25 20
38 34 44 -2 53 -44 12z"/>
<path d="M2048 2543 c7 -3 16 -2 19 1 4 3 -2 6 -13 5 -11 0 -14 -3 -6 -6z"/>
<path d="M4797 2444 c-4 -4 -7 -15 -7 -25 0 -9 -6 -20 -12 -22 -10 -4 -10 -6
-1 -6 14 -1 36 35 31 50 -2 6 -7 7 -11 3z"/>
<path d="M4971 2411 c-8 -5 -10 -14 -6 -21 5 -8 4 -11 -3 -6 -12 7 -37 -58
-27 -74 11 -18 52 32 59 73 7 38 2 44 -23 28z"/>
<path d="M4820 1981 c0 -5 -12 -8 -27 -8 -24 0 -48 -21 -73 -65 -19 -32 34
-12 78 30 43 42 49 52 32 52 -5 0 -10 -4 -10 -9z m-60 -66 c-7 -8 -17 -15 -23
-15 -5 0 -2 9 8 20 21 23 35 19 15 -5z"/>
<path d="M4585 1770 c-3 -5 -2 -10 4 -10 5 0 13 5 16 10 3 6 2 10 -4 10 -5 0
-13 -4 -16 -10z"/>
<path d="M4530 1744 l-25 -15 25 7 c14 3 29 10 35 15 15 14 -7 10 -35 -7z"/>
<path d="M4460 1705 c0 -8 3 -15 8 -16 4 0 23 -2 42 -4 19 -2 78 -6 130 -9
l95 -6 -112 19 c-61 10 -123 21 -137 25 -19 5 -26 3 -26 -9z"/>
<path d="M4500 1662 c0 -13 27 -35 39 -30 5 1 -2 11 -15 21 -13 10 -24 14 -24
9z"/>
<path d="M4788 1663 c7 -3 16 -2 19 1 4 3 -2 6 -13 5 -11 0 -14 -3 -6 -6z"/>
<path d="M4738 1598 c-24 -18 -31 -20 -53 -10 -30 14 -45 8 -45 -16 0 -13 2
-14 9 -3 6 9 11 10 15 2 4 -6 4 -15 1 -21 -3 -5 3 -10 14 -10 12 0 21 4 21 10
0 5 21 23 48 40 26 16 40 29 32 29 -8 0 -27 -10 -42 -21z"/>
<path d="M4605 1520 c-3 -6 1 -7 9 -4 18 7 21 14 7 14 -6 0 -13 -4 -16 -10z"/>
<path d="M4560 1490 c-8 -5 -10 -10 -5 -10 6 0 17 5 25 10 8 5 11 10 5 10 -5
0 -17 -5 -25 -10z"/>
<path d="M4720 1485 c7 -8 20 -15 29 -15 13 1 13 3 -3 15 -26 19 -42 19 -26 0z"/>
<path d="M4495 1450 c-9 -15 4 -30 23 -29 15 1 15 2 -1 6 -42 11 -1 19 88 17
53 -1 93 1 90 4 -11 11 -193 13 -200 2z"/>
<path d="M4718 1453 c7 -3 16 -2 19 1 4 3 -2 6 -13 5 -11 0 -14 -3 -6 -6z"/>
<path d="M4750 1456 c0 -2 7 -6 15 -10 8 -3 15 -1 15 4 0 6 -7 10 -15 10 -8 0
-15 -2 -15 -4z"/>
<path d="M4540 1392 c0 -7 168 -92 183 -92 3 0 3 9 0 20 -3 11 1 28 8 37 12
15 12 16 -1 8 -31 -19 -94 -14 -137 11 -45 26 -53 28 -53 16z"/>
<path d="M4789 1255 c-3 -2 -46 -5 -97 -6 -64 -1 -92 -5 -89 -13 3 -7 26 -10
63 -8 113 6 146 13 132 27 -2 3 -7 3 -9 0z"/>
<path d="M4766 741 c-6 -10 60 -29 93 -27 12 0 21 6 20 11 0 6 -10 9 -22 7
-12 -1 -28 1 -37 4 -26 12 -49 14 -54 5z"/>
<path d="M4920 740 c0 -5 5 -10 11 -10 5 0 7 5 4 10 -3 6 -8 10 -11 10 -2 0
-4 -4 -4 -10z"/>
<path d="M4978 703 c7 -3 16 -2 19 1 4 3 -2 6 -13 5 -11 0 -14 -3 -6 -6z"/>
<path d="M5430 2499 c0 -5 5 -7 10 -4 6 3 10 8 10 11 0 2 -4 4 -10 4 -5 0 -10
-5 -10 -11z"/>
<path d="M5455 2480 c3 -5 11 -10 16 -10 6 0 7 5 4 10 -3 6 -11 10 -16 10 -6
0 -7 -4 -4 -10z"/>
<path d="M5440 2150 c6 -11 15 -20 20 -20 5 0 14 -18 20 -40 6 -22 13 -40 15
-40 12 0 3 70 -10 82 -49 44 -62 49 -45 18z"/>
<path d="M5844 2087 c-11 -6 -28 -23 -37 -39 -11 -19 -24 -28 -40 -28 -14 0
-30 -7 -37 -15 -12 -14 -16 -13 -39 8 -27 26 -83 57 -101 57 -20 0 -9 -18 15
-24 50 -13 104 -60 131 -113 28 -55 49 -71 38 -28 -5 20 -1 26 19 34 13 5 27
17 30 25 4 9 15 16 25 16 42 0 70 78 40 108 -14 14 -15 14 -44 -1z"/>
<path d="M5010 2036 c0 -2 9 -6 20 -9 11 -3 20 -1 20 4 0 5 -9 9 -20 9 -11 0
-20 -2 -20 -4z"/>
<path d="M5681 1943 c0 -25 1 -26 9 -8 12 27 12 35 0 35 -5 0 -10 -12 -9 -27z"/>
<path d="M5180 1953 c0 -7 3 -13 8 -13 4 0 15 -12 24 -27 10 -16 18 -23 18
-16 0 7 -11 25 -25 40 -13 15 -25 22 -25 16z"/>
<path d="M5630 1885 c-8 -9 -21 -13 -32 -9 -14 4 -29 -3 -49 -22 -35 -33 -36
-44 -6 -45 20 -1 19 -2 -8 -14 -27 -13 -28 -14 -7 -16 76 -6 85 -4 108 24 13
16 24 35 24 42 0 7 6 15 13 18 9 3 9 7 -2 20 -17 21 -25 21 -41 2z"/>
<path d="M5747 1819 c-10 -23 -16 -44 -13 -46 6 -6 38 67 34 79 -2 5 -11 -10
-21 -33z"/>
<path d="M5665 1735 c-5 -2 -23 -6 -38 -10 -22 -4 -27 -10 -22 -23 4 -9 7 -25
7 -34 -1 -24 2 -23 43 17 43 43 47 62 10 50z"/>
<path d="M5755 1701 c-7 -22 4 -53 15 -46 5 3 11 1 15 -5 3 -5 1 -10 -5 -10
-6 0 -8 -4 -5 -10 10 -16 22 -12 22 8 1 17 -24 82 -32 82 -2 0 -6 -8 -10 -19z"/>
<path d="M5475 1590 c3 -5 0 -7 -8 -4 -10 4 -14 -2 -14 -21 0 -33 27 -49 54
-30 24 17 55 3 35 -17 -18 -18 -15 -41 7 -55 17 -10 20 -9 24 15 3 15 2 28 -3
30 -4 2 -4 18 0 37 5 21 3 38 -3 44 -17 17 -25 13 -21 -11 2 -13 2 -18 -2 -11
-3 7 -11 10 -18 7 -8 -3 -16 2 -19 10 -4 9 -14 16 -22 16 -9 0 -13 -4 -10 -10z"/>
<path d="M5673 1585 c-15 -16 -18 -49 -4 -41 5 3 11 -1 15 -9 9 -25 22 -17 20
13 -3 47 -4 52 -11 52 -5 -1 -14 -7 -20 -15z"/>
<path d="M5467 1493 c-14 -13 -7 -31 11 -29 20 3 30 36 9 36 -7 0 -17 -3 -20
-7z"/>
<path d="M5249 1458 c0 -2 -2 -10 -4 -18 -2 -8 -6 -24 -10 -35 -7 -20 -7 -20
9 0 9 11 14 25 12 32 -3 6 0 14 7 17 9 3 9 5 0 5 -7 1 -13 0 -14 -1z"/>
<path d="M5686 1442 c-10 -11 -19 -13 -24 -7 -4 6 -15 11 -25 11 -15 2 -17 -5
-13 -45 3 -25 5 -52 5 -60 1 -10 4 -11 15 -2 10 9 16 8 26 -4 24 -29 42 -18
39 25 -2 21 0 42 4 46 10 10 9 42 -1 48 -5 3 -16 -3 -26 -12z m3 -86 c1 -15
-2 -16 -13 -6 -8 6 -12 19 -9 27 5 11 3 14 -6 8 -10 -6 -10 -3 0 16 l13 24 7
-25 c4 -14 7 -33 8 -44z"/>
<path d="M5211 1350 c-1 -14 10 -37 24 -52 14 -15 25 -31 25 -35 0 -4 15 -18
33 -30 36 -25 66 -22 85 8 11 16 9 19 -8 19 -11 0 -20 6 -20 14 0 15 -27 29
-40 21 -5 -3 -11 -1 -15 5 -3 5 -11 10 -17 10 -7 0 -6 -6 2 -15 7 -8 22 -15
34 -15 19 -1 19 -1 3 -11 -23 -13 -77 30 -94 75 -11 29 -12 30 -12 6z"/>
<path d="M5387 1146 c-9 -22 5 -26 33 -10 14 7 20 13 13 14 -6 0 -18 3 -26 6
-8 3 -17 -2 -20 -10z"/>
<path d="M5808 1033 c7 -3 16 -2 19 1 4 3 -2 6 -13 5 -11 0 -14 -3 -6 -6z"/>
<path d="M5798 953 c7 -3 16 -2 19 1 4 3 -2 6 -13 5 -11 0 -14 -3 -6 -6z"/>
<path d="M2560 2466 c0 -2 7 -6 15 -10 8 -3 15 -1 15 4 0 6 -7 10 -15 10 -8 0
-15 -2 -15 -4z"/>
<path d="M2030 2209 c0 -5 5 -7 10 -4 6 3 10 8 10 11 0 2 -4 4 -10 4 -5 0 -10
-5 -10 -11z"/>
<path d="M1275 1160 c3 -5 8 -10 11 -10 2 0 4 5 4 10 0 6 -5 10 -11 10 -5 0
-7 -4 -4 -10z"/>
<path d="M5268 5749 c-5 -14 26 -79 39 -79 3 0 -2 10 -10 23 -8 13 -17 34 -19
48 -2 18 -5 20 -10 8z"/>
<path d="M5737 5745 c3 -8 9 -12 14 -9 12 7 11 11 -5 17 -10 4 -13 1 -9 -8z"/>
<path d="M6027 5741 c-3 -12 -1 -19 4 -15 12 7 11 -7 -1 -26 -9 -13 -10 -13
-10 0 0 13 -2 13 -9 1 -6 -9 -2 -28 12 -54 11 -22 23 -35 25 -29 2 7 9 9 15 5
7 -3 2 5 -10 19 -24 26 -31 44 -12 32 8 -4 9 1 4 17 -5 19 -4 21 5 9 9 -12 10
-10 4 10 -12 45 -20 55 -27 31z"/>
<path d="M6050 5751 c0 -18 47 -76 65 -80 17 -3 17 -2 3 13 -9 8 -22 29 -30
46 -12 27 -38 42 -38 21z"/>
<path d="M6166 5752 c18 -16 64 -32 64 -22 0 5 7 7 15 4 9 -4 15 0 15 10 0 13
-11 16 -52 16 -29 0 -48 -4 -42 -8z"/>
<path d="M5818 5721 c-9 -15 -16 -16 -39 -8 -38 15 -47 2 -20 -27 12 -13 24
-32 25 -42 3 -19 26 -33 26 -15 0 6 5 11 10 11 6 0 10 -7 10 -15 0 -9 11 -27
25 -41 23 -23 25 -23 25 -5 0 11 5 23 11 27 7 4 9 21 6 43 -6 38 -5 36 25 -38
8 -20 11 -22 19 -10 7 11 9 11 9 0 0 -7 6 -11 14 -8 8 3 17 1 20 -6 7 -19 7
25 -1 53 l-7 25 -6 -25 c-6 -23 -6 -23 -23 13 -10 21 -22 35 -28 32 -5 -4 -12
1 -15 10 -4 9 -13 14 -21 11 -7 -3 -16 1 -19 8 -9 23 -33 27 -46 7z"/>
<path d="M6060 5677 c0 -19 16 -31 24 -18 3 5 -1 14 -9 21 -12 10 -15 10 -15
-3z"/>
<path d="M5635 5601 c-18 -7 -15 -11 23 -30 58 -29 155 -92 164 -104 4 -7 12
-6 22 2 24 20 19 29 -14 25 -21 -3 -32 2 -40 16 -13 23 -13 40 0 20 5 -8 12
-11 15 -8 4 4 4 12 0 17 -11 18 -85 52 -97 45 -6 -4 -8 -3 -5 3 4 6 0 14 -9
17 -10 4 -13 2 -8 -7 5 -9 4 -9 -7 1 -15 14 -16 14 -44 3z"/>
<path d="M5890 5466 c0 -8 -3 -21 -6 -30 -3 -9 -2 -16 4 -16 13 0 22 49 11 56
-5 3 -9 -1 -9 -10z"/>
<path d="M5855 5459 c-11 -17 1 -21 15 -4 8 9 8 15 2 15 -6 0 -14 -5 -17 -11z"/>
<path d="M5776 5321 c-4 -5 -2 -12 3 -15 5 -4 12 -2 15 3 4 5 2 12 -3 15 -5 4
-12 2 -15 -3z"/>
<path d="M2620 4720 c-8 -5 -10 -10 -5 -10 6 0 17 5 25 10 8 5 11 10 5 10 -5
0 -17 -5 -25 -10z"/>
<path d="M2925 4680 c-3 -5 -1 -10 4 -10 6 0 11 5 11 10 0 6 -2 10 -4 10 -3 0
-8 -4 -11 -10z"/>
<path d="M1837 4196 c-7 -19 4 -27 21 -17 10 6 10 10 -1 20 -12 9 -16 8 -20
-3z"/>
<path d="M2710 4144 c0 -21 17 -25 22 -6 3 11 0 19 -8 19 -8 0 -14 -6 -14 -13z"/>
<path d="M1751 4124 c0 -11 3 -14 6 -6 3 7 2 16 -1 19 -3 4 -6 -2 -5 -13z"/>
<path d="M1550 4121 c0 -5 5 -13 10 -16 6 -3 10 -2 10 4 0 5 -4 13 -10 16 -5
3 -10 2 -10 -4z"/>
<path d="M6796 4074 c-4 -9 -4 -19 -1 -22 2 -3 7 3 11 12 4 9 4 19 1 22 -2 3
-7 -3 -11 -12z"/>
<path d="M6815 4042 c-6 -4 -10 -22 -11 -40 -1 -26 1 -30 13 -20 8 6 11 18 8
26 -3 9 -1 19 6 22 6 4 7 10 2 13 -5 3 -13 3 -18 -1z"/>
<path d="M920 4020 c0 -5 5 -10 10 -10 6 0 10 5 10 10 0 6 -4 10 -10 10 -5 0
-10 -4 -10 -10z"/>
<path d="M1020 4020 c0 -5 5 -10 11 -10 5 0 7 5 4 10 -3 6 -8 10 -11 10 -2 0
-4 -4 -4 -10z"/>
<path d="M6780 4020 c0 -5 5 -10 11 -10 5 0 7 5 4 10 -3 6 -8 10 -11 10 -2 0
-4 -4 -4 -10z"/>
<path d="M930 3992 c0 -5 7 -15 15 -22 8 -7 15 -8 15 -2 0 5 -7 15 -15 22 -8
7 -15 8 -15 2z"/>
<path d="M875 3970 c3 -5 8 -10 11 -10 2 0 4 5 4 10 0 6 -5 10 -11 10 -5 0 -7
-4 -4 -10z"/>
<path d="M6390 3885 c7 -9 15 -13 17 -11 7 7 -7 26 -19 26 -6 0 -6 -6 2 -15z"/>
<path d="M1270 3873 c0 -14 2 -15 9 -4 5 7 14 10 20 7 6 -4 11 -2 11 3 0 6 -9
11 -20 11 -12 0 -20 -7 -20 -17z"/>
<path d="M1102 3844 c26 -31 71 -74 75 -71 4 4 -74 87 -82 87 -3 0 0 -7 7 -16z"/>
<path d="M2207 3842 c-9 -2 -15 -7 -12 -12 3 -5 12 -7 20 -3 8 3 15 0 15 -6 0
-10 -14 -15 -33 -12 -5 1 -6 -3 -2 -9 6 -10 39 1 48 18 8 12 -16 28 -36 24z"/>
<path d="M6950 3822 c0 -9 35 -62 41 -62 4 0 6 8 4 18 -2 9 -4 24 -4 32 -1 13
-41 24 -41 12z"/>
<path d="M1400 3810 c0 -6 7 -10 15 -10 8 0 15 2 15 4 0 2 -7 6 -15 10 -8 3
-15 1 -15 -4z"/>
<path d="M6910 3802 c0 -5 7 -17 16 -28 14 -17 15 -17 10 -1 -3 10 -6 23 -6
28 0 5 -4 9 -10 9 -5 0 -10 -4 -10 -8z"/>
<path d="M1315 3790 c-3 -5 1 -10 9 -10 9 0 16 5 16 10 0 6 -4 10 -9 10 -6 0
-13 -4 -16 -10z"/>
<path d="M6530 3780 c0 -12 4 -19 9 -16 5 3 11 -5 13 -18 5 -23 3 -24 -31 -19
-20 3 -43 12 -52 20 -15 12 -16 11 -16 -13 0 -18 2 -22 8 -13 6 10 9 7 9 -11
0 -14 4 -20 8 -15 4 6 14 10 22 9 8 0 25 -2 38 -2 12 -1 32 -14 45 -29 35 -41
51 -53 98 -74 31 -13 38 -14 24 -4 -82 63 -101 101 -69 136 19 21 12 51 -10
43 -8 -3 -13 -11 -10 -18 2 -6 -5 -12 -17 -13 -14 -1 -19 3 -15 12 3 10 -6 21
-24 30 -29 15 -30 15 -30 -5z"/>
<path d="M2185 3770 c5 -8 15 -21 22 -30 7 -8 20 -24 29 -35 15 -19 15 -18 0
7 -9 15 -13 33 -10 41 3 8 1 18 -5 22 -7 4 -8 -1 -4 -12 6 -16 4 -16 -17 2
-13 11 -20 13 -15 5z"/>
<path d="M1276 3755 c10 -8 24 -14 29 -14 6 0 1 6 -9 14 -11 8 -24 15 -30 15
-5 0 -1 -7 10 -15z"/>
<path d="M2240 3745 c0 -5 5 -17 10 -25 5 -8 10 -10 10 -5 0 6 -5 17 -10 25
-5 8 -10 11 -10 5z"/>
<path d="M640 3719 c0 -5 5 -7 10 -4 6 3 10 8 10 11 0 2 -4 4 -10 4 -5 0 -10
-5 -10 -11z"/>
<path d="M6052 3631 c-6 -17 -9 -31 -6 -31 7 0 25 52 20 57 -2 2 -8 -10 -14
-26z"/>
<path d="M6379 3608 l-1 -33 -13 30 c-14 30 -14 30 -12 -20 2 -44 0 -50 -18
-47 -16 3 -17 2 -6 -12 11 -12 17 -14 27 -5 11 9 14 7 15 -7 1 -11 5 -3 9 16
7 32 7 33 9 7 0 -16 5 -26 11 -22 6 4 10 -12 10 -41 0 -26 2 -45 5 -42 12 12
6 137 -9 171 -19 46 -26 47 -27 5z"/>
<path d="M6065 3600 c-3 -5 -1 -10 4 -10 6 0 11 5 11 10 0 6 -2 10 -4 10 -3 0
-8 -4 -11 -10z"/>
<path d="M6943 3581 c4 -23 25 -51 40 -51 6 0 2 7 -9 15 -18 14 -18 14 11 15
l30 1 -24 19 c-30 25 -52 26 -48 1z"/>
<path d="M6878 3571 c8 -4 14 -12 14 -17 1 -18 27 -46 37 -40 6 4 20 2 31 -4
11 -6 20 -9 20 -6 0 9 -92 76 -104 76 -6 0 -5 -4 2 -9z"/>
<path d="M6101 3554 c0 -11 3 -14 6 -6 3 7 2 16 -1 19 -3 4 -6 -2 -5 -13z"/>
<path d="M7260 3524 c0 -8 5 -12 10 -9 6 4 8 11 5 16 -9 14 -15 11 -15 -7z"/>
<path d="M5992 3520 c-31 -7 -72 -43 -72 -63 0 -10 28 9 46 32 8 10 13 11 18
3 4 -7 2 -12 -3 -12 -6 0 -11 -5 -11 -11 0 -8 5 -8 15 1 8 7 15 17 15 23 0 5
8 16 18 23 19 15 19 15 -26 4z"/>
<path d="M6930 3500 c0 -6 11 -22 25 -36 14 -14 25 -20 25 -15 0 5 -5 13 -10
16 -6 4 -8 10 -5 15 3 5 -4 14 -15 20 -14 8 -20 8 -20 0z"/>
<path d="M6030 3474 c-30 -11 -32 -13 -10 -13 14 0 36 6 50 14 31 18 7 17 -40
-1z"/>
<path d="M7651 3476 c-1 -11 -6 -16 -15 -13 -9 4 -16 -3 -20 -15 -6 -26 0 -38
21 -38 10 0 14 6 10 20 -3 10 0 21 5 22 6 2 8 13 5 23 -4 18 -5 18 -6 1z"/>
<path d="M591 3462 c-1 -8 -6 -10 -13 -6 -10 5 -10 4 -1 -6 15 -16 28 -8 20
12 -4 11 -6 11 -6 0z"/>
<path d="M5975 3440 c-3 -6 1 -7 9 -4 18 7 21 14 7 14 -6 0 -13 -4 -16 -10z"/>
<path d="M7592 3438 c-7 -7 -12 -18 -12 -25 0 -7 -6 -12 -12 -10 -7 1 -12 -6
-12 -15 1 -10 -2 -18 -8 -18 -5 0 -6 -4 -3 -10 3 -5 1 -10 -6 -10 -6 0 -9 8
-6 20 6 22 -8 28 -16 8 -5 -17 23 -59 34 -52 5 3 9 0 9 -6 0 -6 5 -8 10 -5 6
3 10 20 10 36 0 17 6 32 15 35 8 4 13 17 12 35 -1 16 -2 29 -2 29 -1 0 -6 -5
-13 -12z"/>
<path d="M7361 3424 c0 -11 3 -14 6 -6 3 7 2 16 -1 19 -3 4 -6 -2 -5 -13z"/>
<path d="M5995 3410 c3 -5 8 -10 11 -10 2 0 4 5 4 10 0 6 -5 10 -11 10 -5 0
-7 -4 -4 -10z"/>
<path d="M7457 3406 c-12 -10 -15 -19 -10 -34 7 -19 9 -18 19 13 6 19 11 35
10 35 -1 0 -9 -7 -19 -14z"/>
<path d="M7647 3360 c-3 -11 -1 -23 4 -26 5 -3 9 6 9 20 0 31 -6 34 -13 6z"/>
<path d="M545 3308 c4 -19 1 -28 -7 -28 -10 0 -10 -2 -1 -8 7 -4 19 -23 27
-42 l15 -35 1 42 c0 36 -3 41 -17 36 -10 -4 -14 -2 -10 4 4 6 2 22 -3 35 -10
22 -10 22 -5 -4z"/>
<path d="M560 3321 c0 -5 7 -12 16 -15 14 -5 15 -4 4 9 -14 17 -20 19 -20 6z"/>
<path d="M6545 3209 c0 -16 3 -29 7 -29 11 0 10 47 0 54 -4 2 -8 -9 -7 -25z"/>
<path d="M1855 3150 c-3 -5 1 -10 9 -10 9 0 16 5 16 10 0 6 -4 10 -9 10 -6 0
-13 -4 -16 -10z"/>
<path d="M6243 3145 c4 -8 2 -17 -4 -20 -5 -4 -12 1 -15 9 -7 19 -30 21 -37 4
-4 -9 -6 -8 -6 2 -1 15 -31 -34 -31 -50 0 -12 29 -40 41 -40 5 0 9 7 9 15 0 8
5 15 11 15 5 0 7 -4 4 -10 -3 -5 -2 -10 4 -10 5 0 12 9 16 20 4 11 20 23 37
28 l32 8 -24 22 c-27 25 -45 29 -37 7z"/>
<path d="M1875 3020 c-3 -5 -1 -10 4 -10 6 0 11 5 11 10 0 6 -2 10 -4 10 -3 0
-8 -4 -11 -10z"/>
<path d="M1965 2960 c-4 -6 3 -10 14 -10 25 0 27 6 6 13 -8 4 -17 2 -20 -3z"/>
<path d="M2170 2950 c-13 -8 -13 -10 2 -10 9 0 20 5 23 10 8 13 -5 13 -25 0z"/>
<path d="M6035 2950 c3 -5 8 -10 11 -10 2 0 4 5 4 10 0 6 -5 10 -11 10 -5 0
-7 -4 -4 -10z"/>
<path d="M1876 2938 c3 -4 12 -8 20 -8 8 0 14 4 14 8 0 4 -9 8 -19 8 -11 0
-17 -4 -15 -8z"/>
<path d="M1831 2924 c0 -11 3 -14 6 -6 3 7 2 16 -1 19 -3 4 -6 -2 -5 -13z"/>
<path d="M1850 2930 c0 -5 5 -10 11 -10 5 0 7 5 4 10 -3 6 -8 10 -11 10 -2 0
-4 -4 -4 -10z"/>
<path d="M2085 2894 c-14 -15 -23 -30 -20 -34 2 -3 -9 -8 -25 -9 -71 -5 -77
-6 -73 -18 6 -15 15 -16 29 -4 5 5 20 12 32 16 23 7 24 7 5 -12 -10 -11 -21
-18 -25 -16 -4 2 -10 -2 -13 -8 -4 -5 -12 -8 -19 -6 -7 3 -12 -6 -13 -22 0
-14 1 -18 4 -8 2 9 12 17 21 16 11 0 12 -2 5 -6 -7 -2 -13 -15 -13 -28 0 -13
-5 -25 -12 -27 -7 -3 -6 -7 5 -11 9 -3 17 -2 17 4 0 6 5 7 10 4 17 -10 52 5
46 21 -3 8 0 14 6 14 7 0 6 5 -2 15 -7 8 -8 15 -2 15 5 0 15 -7 22 -15 14 -16
30 -20 30 -7 0 5 -11 15 -25 22 -27 15 -34 50 -10 50 8 0 15 -7 15 -16 0 -8 4
-13 9 -10 5 4 11 1 13 -5 4 -11 78 -22 78 -11 0 8 -49 32 -65 32 -7 0 -19 8
-28 18 -13 14 -14 21 -5 30 7 7 18 12 25 12 7 0 13 7 13 15 0 21 -7 19 -35
-11z"/>
<path d="M2140 2910 c0 -5 5 -10 10 -10 6 0 10 5 10 10 0 6 -4 10 -10 10 -5 0
-10 -4 -10 -10z"/>
<path d="M6227 2903 c-2 -5 -4 -21 -5 -37 -2 -24 0 -27 13 -16 8 7 15 21 15
31 0 19 -16 35 -23 22z"/>
<path d="M2150 2874 c0 -7 52 -25 57 -20 2 2 -10 8 -26 14 -17 6 -31 9 -31 6z"/>
<path d="M2575 2849 c-11 -4 -14 -8 -7 -8 6 -1 12 -9 13 -18 0 -15 2 -15 9 2
5 12 9 14 9 6 1 -8 4 -12 7 -8 13 13 -11 34 -31 26z"/>
<path d="M2155 2841 c-3 -5 -2 -12 3 -15 5 -3 9 1 9 9 0 17 -3 19 -12 6z"/>
<path d="M1923 2826 c0 -8 8 -11 19 -8 10 2 15 8 12 13 -8 14 -31 11 -31 -5z"/>
<path d="M2270 2820 c0 -5 5 -10 10 -10 6 0 10 5 10 10 0 6 -4 10 -10 10 -5 0
-10 -4 -10 -10z"/>
<path d="M2488 2795 c2 -14 -1 -32 -8 -40 -10 -12 -9 -15 7 -15 16 0 18 6 15
35 -2 19 -8 37 -12 40 -4 2 -5 -7 -2 -20z"/>
<path d="M1859 2797 c5 -5 21 -7 37 -5 27 3 26 4 -8 9 -22 3 -34 1 -29 -4z"/>
<path d="M2300 2795 c-9 -11 -4 -16 27 -24 24 -7 41 -7 47 -1 7 7 2 10 -12 10
-12 0 -22 4 -22 9 0 16 -28 20 -40 6z"/>
<path d="M1928 2773 c7 -3 16 -2 19 1 4 3 -2 6 -13 5 -11 0 -14 -3 -6 -6z"/>
<path d="M2400 2770 c0 -5 -9 -14 -20 -20 -16 -9 -28 -7 -52 4 -48 25 -44 12
6 -18 47 -27 57 -31 55 -18 -3 20 2 32 16 32 8 0 15 7 15 15 0 8 -4 15 -10 15
-5 0 -10 -4 -10 -10z"/>
<path d="M2435 2770 c-3 -5 -1 -10 4 -10 6 0 11 5 11 10 0 6 -2 10 -4 10 -3 0
-8 -4 -11 -10z"/>
<path d="M710 2761 c0 -4 6 -13 13 -20 10 -11 9 -12 -3 -6 -13 8 -13 7 -1 -8
14 -18 47 -22 68 -9 7 5 -4 15 -33 29 -24 12 -44 18 -44 14z"/>
<path d="M2527 2752 c-3 -4 -1 -16 4 -27 6 -16 8 -16 8 -3 1 9 6 18 13 20 8 3
6 7 -5 11 -9 3 -18 3 -20 -1z"/>
<path d="M1940 2740 c0 -5 7 -7 15 -4 8 4 15 8 15 10 0 2 -7 4 -15 4 -8 0 -15
-4 -15 -10z"/>
<path d="M2070 2741 c0 -3 19 -14 42 -24 33 -15 43 -16 49 -5 5 7 3 16 -4 20
-7 4 -13 3 -15 -2 -5 -12 -32 -13 -32 -1 0 5 -9 11 -20 14 -11 3 -20 2 -20 -2z"/>
<path d="M2279 2741 c11 -7 11 -10 0 -15 -8 -3 -4 -3 8 -1 12 3 24 1 28 -5 3
-5 12 -10 18 -10 7 0 -1 9 -18 20 -16 11 -34 20 -40 20 -5 0 -4 -4 4 -9z"/>
<path d="M2490 2716 c0 -2 7 -6 15 -10 8 -3 15 -1 15 4 0 6 -7 10 -15 10 -8 0
-15 -2 -15 -4z"/>
<path d="M1995 2701 c-3 -5 -1 -12 5 -16 5 -3 10 -1 10 4 0 6 5 11 10 11 6 0
10 -6 10 -14 0 -21 23 -26 51 -10 l24 13 -32 -3 c-23 -2 -30 0 -26 10 6 16
-42 20 -52 5z"/>
<path d="M2441 2684 c0 -11 3 -14 6 -6 3 7 2 16 -1 19 -3 4 -6 -2 -5 -13z"/>
<path d="M737 2673 c-16 -15 -6 -43 15 -43 16 0 19 3 11 11 -6 6 -9 18 -6 25
5 14 -8 19 -20 7z"/>
<path d="M7263 2653 c1 -10 6 -24 10 -30 5 -8 4 -13 -2 -13 -6 0 -11 -7 -11
-15 0 -8 -4 -15 -10 -15 -5 0 -10 10 -10 22 0 27 -17 12 -20 -17 -4 -41 -1
-45 33 -38 35 7 48 19 40 39 -2 6 0 15 6 18 6 4 4 17 -7 36 -19 33 -33 39 -29
13z"/>
<path d="M2455 2650 c3 -5 8 -10 11 -10 2 0 4 5 4 10 0 6 -5 10 -11 10 -5 0
-7 -4 -4 -10z"/>
<path d="M7220 2640 c0 -5 5 -10 11 -10 5 0 7 5 4 10 -3 6 -8 10 -11 10 -2 0
-4 -4 -4 -10z"/>
<path d="M7617 2599 c-9 -5 -22 -7 -27 -4 -12 7 -12 3 -4 -20 5 -12 9 -13 14
-5 5 9 10 6 15 -9 12 -39 65 -16 65 30 0 18 -2 19 -15 9 -10 -9 -15 -9 -15 -1
0 14 -9 14 -33 0z"/>
<path d="M6 2585 c-3 -9 -6 -22 -5 -28 0 -7 5 -1 10 12 5 13 8 26 5 28 -2 2
-6 -3 -10 -12z"/>
<path d="M7394 2555 c-17 -14 -31 -20 -35 -14 -3 6 -11 4 -19 -6 -7 -9 -22
-21 -33 -27 -17 -9 -19 -8 -13 7 5 13 2 16 -10 11 -8 -3 -18 -6 -20 -6 -2 0
-4 -9 -4 -20 0 -13 -5 -17 -14 -14 -8 3 -19 -3 -25 -14 -6 -11 -24 -25 -41
-30 -16 -6 -30 -15 -30 -19 0 -12 -68 -36 -80 -28 -5 3 -10 1 -10 -4 0 -6 5
-11 11 -11 7 0 -1 -13 -17 -28 -16 -16 -31 -28 -34 -27 -3 2 -18 -10 -33 -26
-36 -37 -21 -37 43 1 40 23 69 32 126 37 41 3 74 10 74 14 0 5 4 9 10 9 5 0 7
-8 4 -17 -4 -12 0 -10 14 6 15 18 21 21 25 10 5 -12 6 -12 6 0 2 24 70 77 93
73 3 -1 5 12 3 28 -3 20 0 28 9 24 7 -3 22 4 35 15 18 16 21 26 16 50 -8 37
-14 38 -51 6z"/>
<path d="M1928 2503 c7 -3 16 -2 19 1 4 3 -2 6 -13 5 -11 0 -14 -3 -6 -6z"/>
<path d="M95 2479 c-4 -6 -5 -12 -2 -15 2 -3 7 2 10 11 7 17 1 20 -8 4z"/>
<path d="M1863 2413 c9 -2 23 -2 30 0 6 3 -1 5 -18 5 -16 0 -22 -2 -12 -5z"/>
<path d="M1765 2394 c-19 -14 -19 -15 3 -11 27 4 54 27 32 27 -8 0 -24 -7 -35
-16z"/>
<path d="M650 2379 c0 -5 5 -7 10 -4 6 3 10 8 10 11 0 2 -4 4 -10 4 -5 0 -10
-5 -10 -11z"/>
<path d="M676 2368 c-13 -18 -18 -19 -31 -8 -13 11 -14 10 -9 -4 5 -13 14 -16
30 -12 17 5 24 2 24 -8 0 -8 -6 -17 -12 -19 -10 -4 -10 -6 -1 -6 7 -1 17 8 23
19 7 14 7 20 0 20 -5 0 -10 5 -10 10 0 6 15 10 33 11 27 0 29 2 12 9 -32 14
-43 11 -59 -12z"/>
<path d="M27 2373 c-4 -3 -7 -11 -7 -17 0 -6 5 -5 12 2 6 6 9 14 7 17 -3 3 -9
2 -12 -2z"/>
<path d="M602 2340 c0 -14 2 -19 5 -12 2 6 2 18 0 25 -3 6 -5 1 -5 -13z"/>
<path d="M735 2350 c-3 -5 -2 -10 4 -10 5 0 13 5 16 10 3 6 2 10 -4 10 -5 0
-13 -4 -16 -10z"/>
<path d="M622 2330 c0 -14 2 -19 5 -12 2 6 2 18 0 25 -3 6 -5 1 -5 -13z"/>
<path d="M1801 2336 c-10 -12 -8 -13 9 -9 25 7 37 23 17 23 -8 0 -20 -6 -26
-14z"/>
<path d="M1864 2335 c-4 -8 -9 -13 -13 -11 -4 3 -18 -4 -31 -15 -15 -12 -18
-17 -7 -13 13 5 16 2 12 -12 -5 -15 -3 -14 11 4 9 12 23 22 30 22 8 0 14 9 14
20 0 24 -8 26 -16 5z"/>
<path d="M1883 2296 c-46 -45 -41 -53 7 -15 22 18 40 36 40 41 0 14 -14 6 -47
-26z"/>
<path d="M362 2313 c-10 -4 -9 -9 5 -19 17 -13 17 -15 -1 -29 -11 -8 -15 -15
-10 -15 6 0 19 7 30 15 18 14 18 16 1 29 -14 10 -15 15 -5 19 7 3 9 5 3 5 -5
0 -16 -2 -23 -5z"/>
<path d="M180 2289 c0 -5 5 -7 10 -4 6 3 10 8 10 11 0 2 -4 4 -10 4 -5 0 -10
-5 -10 -11z"/>
<path d="M344 2280 c-20 -8 -42 -30 -30 -30 13 0 56 24 56 32 0 9 1 9 -26 -2z"/>
<path d="M1934 2274 c-18 -14 -18 -15 4 -4 12 6 22 13 22 15 0 8 -5 6 -26 -11z"/>
<path d="M405 2260 c-3 -5 -2 -10 4 -10 5 0 13 5 16 10 3 6 2 10 -4 10 -5 0
-13 -4 -16 -10z"/>
<path d="M323 2235 c-8 -9 -9 -16 -3 -20 14 -8 30 3 30 21 0 18 -11 17 -27 -1z"/>
<path d="M1526 2200 l6 -35 -22 23 c-11 12 -25 20 -30 17 -10 -6 4 -50 22 -72
7 -9 7 -13 -2 -13 -9 0 -9 -4 -2 -12 5 -7 9 -24 8 -38 -1 -14 3 -28 9 -32 6
-5 5 -11 -4 -17 -9 -6 -10 -11 -2 -15 10 -7 129 69 166 107 17 17 17 19 3 14
-10 -4 -18 -2 -18 4 0 6 -5 7 -10 4 -6 -3 -23 8 -39 26 -16 17 -34 28 -40 25
-12 -8 -33 9 -44 34 -4 8 -4 -1 -1 -20z"/>
<path d="M231 2194 c0 -11 3 -14 6 -6 3 7 2 16 -1 19 -3 4 -6 -2 -5 -13z"/>
<path d="M6890 2171 c0 -6 4 -12 8 -15 5 -3 9 1 9 9 0 8 -4 15 -9 15 -4 0 -8
-4 -8 -9z"/>
<path d="M1001 2054 c0 -11 3 -14 6 -6 3 7 2 16 -1 19 -3 4 -6 -2 -5 -13z"/>
<path d="M6931 2017 c-13 -21 -12 -21 5 -5 10 10 16 20 13 22 -3 3 -11 -5 -18
-17z"/>
<path d="M7612 1971 c-7 -4 -12 -12 -11 -17 4 -22 -2 -34 -18 -34 -14 0 -15
-2 -4 -9 8 -5 10 -14 6 -21 -6 -9 -4 -11 5 -5 10 6 12 4 8 -7 -8 -19 20 -43
49 -43 29 0 41 14 23 26 -11 8 -12 12 -2 16 27 11 3 103 -27 103 -9 0 -22 -4
-29 -9z m27 -120 c-13 -4 -15 -2 -23 29 l-7 25 20 -25 c11 -14 15 -27 10 -29z"/>
<path d="M6912 1945 c0 -16 2 -22 5 -12 2 9 2 23 0 30 -3 6 -5 -1 -5 -18z"/>
<path d="M1531 1884 c0 -11 3 -14 6 -6 3 7 2 16 -1 19 -3 4 -6 -2 -5 -13z"/>
<path d="M3290 1810 c0 -5 5 -10 11 -10 5 0 7 5 4 10 -3 6 -8 10 -11 10 -2 0
-4 -4 -4 -10z"/>
<path d="M1506 1754 c-9 -8 -16 -25 -17 -37 0 -12 -2 -32 -5 -44 -2 -12 1 -25
6 -28 6 -3 10 0 10 8 0 8 7 28 16 45 8 18 12 37 8 44 -5 9 -2 9 9 -1 22 -17
34 -7 17 14 -16 19 -25 19 -44 -1z"/>
<path d="M1467 1739 c-4 -13 -10 -18 -18 -13 -9 5 -10 2 -6 -10 4 -10 7 -20 7
-22 0 -2 4 -4 9 -4 5 0 12 14 16 31 8 35 1 51 -8 18z"/>
<path d="M1555 1640 c-4 -6 3 -10 14 -10 25 0 27 6 6 13 -8 4 -17 2 -20 -3z"/>
<path d="M2591 1614 c0 -11 3 -14 6 -6 3 7 2 16 -1 19 -3 4 -6 -2 -5 -13z"/>
<path d="M1540 1569 c0 -5 5 -7 10 -4 6 3 10 8 10 11 0 2 -4 4 -10 4 -5 0 -10
-5 -10 -11z"/>
<path d="M2520 1549 c0 -5 5 -7 10 -4 6 3 10 8 10 11 0 2 -4 4 -10 4 -5 0 -10
-5 -10 -11z"/>
<path d="M1390 1522 c0 -12 19 -26 26 -19 2 2 -2 10 -11 17 -9 8 -15 8 -15 2z"/>
<path d="M3010 1427 l-23 -32 29 27 c15 15 26 30 23 33 -3 2 -16 -10 -29 -28z"/>
<path d="M2558 1443 c7 -3 16 -2 19 1 4 3 -2 6 -13 5 -11 0 -14 -3 -6 -6z"/>
<path d="M2920 1330 c-9 -6 -10 -10 -3 -10 6 0 15 5 18 10 8 12 4 12 -15 0z"/>
<path d="M4200 1190 c0 -5 4 -10 9 -10 6 0 13 5 16 10 3 6 -1 10 -9 10 -9 0
-16 -4 -16 -10z"/>
<path d="M2749 1163 l-24 -28 28 24 c25 23 32 31 24 31 -2 0 -14 -12 -28 -27z"/>
<path d="M3100 740 c0 -6 17 -10 37 -10 43 0 41 5 -4 13 -19 4 -33 2 -33 -3z"/>
<path d="M2938 733 c7 -3 16 -2 19 1 4 3 -2 6 -13 5 -11 0 -14 -3 -6 -6z"/>
<path d="M3008 733 c6 -2 18 -2 25 0 6 3 1 5 -13 5 -14 0 -19 -2 -12 -5z"/>
<path d="M3028 563 c6 -2 18 -2 25 0 6 3 1 5 -13 5 -14 0 -19 -2 -12 -5z"/>
<path d="M2923 3 c9 -2 25 -2 35 0 9 3 1 5 -18 5 -19 0 -27 -2 -17 -5z"/>
</g>
</svg>
